<svg width="1067" height="400" viewBox="0 0 1067 400" fill="none" xmlns="http://www.w3.org/2000/svg">
<g clip-path="url(#clip0_136_3)">
<rect x="0.286865" width="1066.67" height="400" fill="white"/>
<g opacity="0.66" clip-path="url(#clip1_136_3)">
<path d="M20.3835 -28.342H-8.12292V0.173374H20.3835V-28.342Z" stroke="#DDDDDD" stroke-width="1.5"/>
<path d="M48.89 -28.342H20.3835V0.173374H48.89V-28.342Z" stroke="#DDDDDD" stroke-width="1.5"/>
<path d="M77.3965 -28.342H48.89V0.173374H77.3965V-28.342Z" fill="#E2E7F0" fill-opacity="0.3" stroke="#DDDDDD" stroke-width="1.5"/>
<path d="M105.903 -28.342H77.3965V0.173374H105.903V-28.342Z" stroke="#DDDDDD" stroke-width="1.5"/>
<path d="M134.409 -28.342H105.903V0.173374H134.409V-28.342Z" stroke="#DDDDDD" stroke-width="1.5"/>
<path d="M162.916 -28.342H134.409V0.173374H162.916V-28.342Z" stroke="#DDDDDD" stroke-width="1.5"/>
<path d="M191.422 -28.342H162.916V0.173374H191.422V-28.342Z" stroke="#DDDDDD" stroke-width="1.5"/>
<path d="M219.929 -28.342H191.422V0.173374H219.929V-28.342Z" stroke="#DDDDDD" stroke-width="1.5"/>
<path d="M248.435 -28.342H219.929V0.173374H248.435V-28.342Z" fill="#E2E7F0" fill-opacity="0.3" stroke="#DDDDDD" stroke-width="1.5"/>
<path d="M276.942 -28.342H248.435V0.173374H276.942V-28.342Z" stroke="#DDDDDD" stroke-width="1.5"/>
<path d="M305.448 -28.342H276.942V0.173374H305.448V-28.342Z" stroke="#DDDDDD" stroke-width="1.5"/>
<path d="M333.955 -28.342H305.448V0.173374H333.955V-28.342Z" stroke="#DDDDDD" stroke-width="1.5"/>
<path d="M619.019 -28.342H590.513V0.173374H619.019V-28.342Z" stroke="#DDDDDD" stroke-width="1.5"/>
<path d="M647.526 -28.342H619.019V0.173374H647.526V-28.342Z" stroke="#DDDDDD" stroke-width="1.5"/>
<path d="M676.032 -28.342H647.526V0.173374H676.032V-28.342Z" stroke="#DDDDDD" stroke-width="1.5"/>
<path d="M704.539 -28.342H676.032V0.173374H704.539V-28.342Z" stroke="#DDDDDD" stroke-width="1.5"/>
<path d="M733.045 -28.342H704.539V0.173374H733.045V-28.342Z" fill="#E2E7F0" fill-opacity="0.3" stroke="#DDDDDD" stroke-width="1.5"/>
<path d="M761.552 -28.342H733.045V0.173374H761.552V-28.342Z" stroke="#DDDDDD" stroke-width="1.5"/>
<path d="M790.058 -28.342H761.552V0.173374H790.058V-28.342Z" stroke="#DDDDDD" stroke-width="1.5"/>
<path d="M818.565 -28.342H790.058V0.173374H818.565V-28.342Z" fill="#E2E7F0" fill-opacity="0.3" stroke="#DDDDDD" stroke-width="1.5"/>
<path d="M847.071 -28.342H818.565V0.173374H847.071V-28.342Z" stroke="#DDDDDD" stroke-width="1.5"/>
<path d="M875.578 -28.342H847.071V0.173374H875.578V-28.342Z" stroke="#DDDDDD" stroke-width="1.5"/>
<path d="M904.084 -28.342H875.578V0.173374H904.084V-28.342Z" stroke="#DDDDDD" stroke-width="1.5"/>
<path d="M932.591 -28.342H904.084V0.173374H932.591V-28.342Z" stroke="#DDDDDD" stroke-width="1.5"/>
<path d="M961.097 -28.342H932.591V0.173374H961.097V-28.342Z" stroke="#DDDDDD" stroke-width="1.5"/>
<path d="M989.604 -28.342H961.097V0.173374H989.604V-28.342Z" stroke="#DDDDDD" stroke-width="1.5"/>
<path d="M1018.11 -28.342H989.604V0.173374H1018.11V-28.342Z" stroke="#DDDDDD" stroke-width="1.5"/>
<path d="M1046.62 -28.342H1018.11V0.173374H1046.62V-28.342Z" stroke="#DDDDDD" stroke-width="1.5"/>
<path d="M1075.12 -28.342H1046.62V0.173374H1075.12V-28.342Z" fill="#E2E7F0" fill-opacity="0.3" stroke="#DDDDDD" stroke-width="1.5"/>
<path d="M20.3835 0.173374H-8.12292V28.6887H20.3835V0.173374Z" stroke="#DDDDDD" stroke-width="1.5"/>
<path d="M48.89 0.173374H20.3835V28.6887H48.89V0.173374Z" stroke="#DDDDDD" stroke-width="1.5"/>
<path d="M77.3965 0.173374H48.89V28.6887H77.3965V0.173374Z" stroke="#DDDDDD" stroke-width="1.5"/>
<path d="M105.903 0.173374H77.3965V28.6887H105.903V0.173374Z" stroke="#DDDDDD" stroke-width="1.5"/>
<path d="M134.409 0.173374H105.903V28.6887H134.409V0.173374Z" stroke="#DDDDDD" stroke-width="1.5"/>
<path d="M162.916 0.173374H134.409V28.6887H162.916V0.173374Z" stroke="#DDDDDD" stroke-width="1.5"/>
<path d="M191.422 0.173374H162.916V28.6887H191.422V0.173374Z" fill="#E2E7F0" fill-opacity="0.3" stroke="#DDDDDD" stroke-width="1.5"/>
<path d="M219.929 0.173374H191.422V28.6887H219.929V0.173374Z" stroke="#DDDDDD" stroke-width="1.5"/>
<path d="M333.955 0.173374H305.448V28.6887H333.955V0.173374Z" stroke="#DDDDDD" stroke-width="1.5"/>
<path d="M362.461 0.173374H333.955V28.6887H362.461V0.173374Z" stroke="#DDDDDD" stroke-width="1.5"/>
<path d="M390.968 0.173374H362.461V28.6887H390.968V0.173374Z" stroke="#DDDDDD" stroke-width="1.5"/>
<path d="M419.474 0.173374H390.968V28.6887H419.474V0.173374Z" stroke="#DDDDDD" stroke-width="1.5"/>
<path d="M447.981 0.173374H419.474V28.6887H447.981V0.173374Z" stroke="#DDDDDD" stroke-width="1.5"/>
<path d="M476.487 0.173374H447.981V28.6887H476.487V0.173374Z" stroke="#DDDDDD" stroke-width="1.5"/>
<path d="M904.084 0.173374H875.578V28.6887H904.084V0.173374Z" stroke="#DDDDDD" stroke-width="1.5"/>
<path d="M932.591 0.173374H904.084V28.6887H932.591V0.173374Z" fill="#E2E7F0" fill-opacity="0.3" stroke="#DDDDDD" stroke-width="1.5"/>
<path d="M961.097 0.173374H932.591V28.6887H961.097V0.173374Z" stroke="#DDDDDD" stroke-width="1.5"/>
<path d="M989.604 0.173374H961.097V28.6887H989.604V0.173374Z" stroke="#DDDDDD" stroke-width="1.5"/>
<path d="M1018.11 0.173374H989.604V28.6887H1018.11V0.173374Z" stroke="#DDDDDD" stroke-width="1.5"/>
<path d="M1046.62 0.173374H1018.11V28.6887H1046.62V0.173374Z" stroke="#DDDDDD" stroke-width="1.5"/>
<path d="M1075.12 0.173374H1046.62V28.6887H1075.12V0.173374Z" stroke="#DDDDDD" stroke-width="1.5"/>
<path d="M20.3835 28.6887H-8.12292V57.204H20.3835V28.6887Z" stroke="#DDDDDD" stroke-width="1.5"/>
<path d="M48.89 28.6887H20.3835V57.204H48.89V28.6887Z" stroke="#DDDDDD" stroke-width="1.5"/>
<path d="M77.3965 28.6887H48.89V57.204H77.3965V28.6887Z" stroke="#DDDDDD" stroke-width="1.5"/>
<path d="M105.903 28.6887H77.3965V57.204H105.903V28.6887Z" stroke="#DDDDDD" stroke-width="1.5"/>
<path d="M134.409 28.6887H105.903V57.204H134.409V28.6887Z" stroke="#DDDDDD" stroke-width="1.5"/>
<path d="M162.916 28.6887H134.409V57.204H162.916V28.6887Z" stroke="#DDDDDD" stroke-width="1.5"/>
<path d="M333.955 28.6887H305.448V57.204H333.955V28.6887Z" stroke="#DDDDDD" stroke-width="1.5"/>
<path d="M619.019 28.6887H590.513V57.204H619.019V28.6887Z" stroke="#DDDDDD" stroke-width="1.5"/>
<path d="M647.526 28.6887H619.019V57.204H647.526V28.6887Z" stroke="#DDDDDD" stroke-width="1.5"/>
<path d="M676.032 28.6887H647.526V57.204H676.032V28.6887Z" stroke="#DDDDDD" stroke-width="1.5"/>
<path d="M704.539 28.6887H676.032V57.204H704.539V28.6887Z" stroke="#DDDDDD" stroke-width="1.5"/>
<path d="M733.045 28.6887H704.539V57.204H733.045V28.6887Z" stroke="#DDDDDD" stroke-width="1.5"/>
<path d="M761.552 28.6887H733.045V57.204H761.552V28.6887Z" stroke="#DDDDDD" stroke-width="1.5"/>
<path d="M790.058 28.6887H761.552V57.204H790.058V28.6887Z" stroke="#DDDDDD" stroke-width="1.5"/>
<path d="M961.097 28.6887H932.591V57.204H961.097V28.6887Z" stroke="#DDDDDD" stroke-width="1.5"/>
<path d="M989.604 28.6887H961.097V57.204H989.604V28.6887Z" stroke="#DDDDDD" stroke-width="1.5"/>
<path d="M1018.11 28.6887H989.604V57.204H1018.11V28.6887Z" stroke="#DDDDDD" stroke-width="1.5"/>
<path d="M1046.62 28.6887H1018.11V57.204H1046.62V28.6887Z" stroke="#DDDDDD" stroke-width="1.5"/>
<path d="M1075.12 28.6887H1046.62V57.204H1075.12V28.6887Z" stroke="#DDDDDD" stroke-width="1.5"/>
<path d="M20.3835 57.204H-8.12292V85.7193H20.3835V57.204Z" stroke="#DDDDDD" stroke-width="1.5"/>
<path d="M48.89 57.204H20.3835V85.7193H48.89V57.204Z" stroke="#DDDDDD" stroke-width="1.5"/>
<path d="M77.3965 57.204H48.89V85.7193H77.3965V57.204Z" stroke="#DDDDDD" stroke-width="1.5"/>
<path d="M105.903 57.204H77.3965V85.7193H105.903V57.204Z" stroke="#DDDDDD" stroke-width="1.5"/>
<path d="M134.409 57.204H105.903V85.7193H134.409V57.204Z" stroke="#DDDDDD" stroke-width="1.5"/>
<path d="M162.916 57.204H134.409V85.7193H162.916V57.204Z" stroke="#DDDDDD" stroke-width="1.5"/>
<path d="M191.422 57.204H162.916V85.7193H191.422V57.204Z" stroke="#DDDDDD" stroke-width="1.5"/>
<path d="M219.929 57.204H191.422V85.7193H219.929V57.204Z" stroke="#DDDDDD" stroke-width="1.5"/>
<path d="M790.058 57.204H761.552V85.7193H790.058V57.204Z" stroke="#DDDDDD" stroke-width="1.5"/>
<path d="M847.071 57.204H818.565V85.7193H847.071V57.204Z" fill="#E2E7F0" fill-opacity="0.3" stroke="#DDDDDD" stroke-width="1.5"/>
<path d="M875.578 57.204H847.071V85.7193H875.578V57.204Z" stroke="#DDDDDD" stroke-width="1.5"/>
<path d="M904.084 57.204H875.578V85.7193H904.084V57.204Z" stroke="#DDDDDD" stroke-width="1.5"/>
<path d="M932.591 57.204H904.084V85.7193H932.591V57.204Z" stroke="#DDDDDD" stroke-width="1.5"/>
<path d="M961.097 57.204H932.591V85.7193H961.097V57.204Z" stroke="#DDDDDD" stroke-width="1.5"/>
<path d="M989.604 57.204H961.097V85.7193H989.604V57.204Z" fill="#E2E7F0" fill-opacity="0.3" stroke="#DDDDDD" stroke-width="1.5"/>
<path d="M1018.11 57.204H989.604V85.7193H1018.11V57.204Z" stroke="#DDDDDD" stroke-width="1.5"/>
<path d="M1046.62 57.204H1018.11V85.7193H1046.62V57.204Z" stroke="#DDDDDD" stroke-width="1.5"/>
<path d="M1075.12 57.204H1046.62V85.7193H1075.12V57.204Z" fill="#E2E7F0" fill-opacity="0.3" stroke="#DDDDDD" stroke-width="1.5"/>
<path d="M20.3835 85.7193H-8.12292V114.235H20.3835V85.7193Z" stroke="#DDDDDD" stroke-width="1.5"/>
<path d="M48.89 85.7193H20.3835V114.235H48.89V85.7193Z" fill="#E2E7F0" fill-opacity="0.3" stroke="#DDDDDD" stroke-width="1.5"/>
<path d="M77.3965 85.7193H48.89V114.235H77.3965V85.7193Z" stroke="#DDDDDD" stroke-width="1.5"/>
<path d="M191.422 85.7193H162.916V114.235H191.422V85.7193Z" fill="#E2E7F0" fill-opacity="0.3" stroke="#DDDDDD" stroke-width="1.5"/>
<path d="M219.929 85.7193H191.422V114.235H219.929V85.7193Z" stroke="#DDDDDD" stroke-width="1.5"/>
<path d="M276.942 85.7193H248.435V114.235H276.942V85.7193Z" stroke="#DDDDDD" stroke-width="1.5"/>
<path d="M790.058 85.7193H761.552V114.235H790.058V85.7193Z" stroke="#DDDDDD" stroke-width="1.5"/>
<path d="M818.565 85.7193H790.058V114.235H818.565V85.7193Z" stroke="#DDDDDD" stroke-width="1.5"/>
<path d="M904.084 85.7193H875.578V114.235H904.084V85.7193Z" stroke="#DDDDDD" stroke-width="1.5"/>
<path d="M932.591 85.7193H904.084V114.235H932.591V85.7193Z" stroke="#DDDDDD" stroke-width="1.5"/>
<path d="M961.097 85.7193H932.591V114.235H961.097V85.7193Z" stroke="#DDDDDD" stroke-width="1.5"/>
<path d="M1075.12 85.7193H1046.62V114.235H1075.12V85.7193Z" stroke="#DDDDDD" stroke-width="1.5"/>
<path d="M20.3835 114.235H-8.12292V142.75H20.3835V114.235Z" stroke="#DDDDDD" stroke-width="1.5"/>
<path d="M48.89 114.235H20.3835V142.75H48.89V114.235Z" stroke="#DDDDDD" stroke-width="1.5"/>
<path d="M77.3965 114.235H48.89V142.75H77.3965V114.235Z" stroke="#DDDDDD" stroke-width="1.5"/>
<path d="M105.903 114.235H77.3965V142.75H105.903V114.235Z" stroke="#DDDDDD" stroke-width="1.5"/>
<path d="M134.409 114.235H105.903V142.75H134.409V114.235Z" stroke="#DDDDDD" stroke-width="1.5"/>
<path d="M162.916 114.235H134.409V142.75H162.916V114.235Z" stroke="#DDDDDD" stroke-width="1.5"/>
<path d="M305.448 114.235H276.942V142.75H305.448V114.235Z" stroke="#DDDDDD" stroke-width="1.5"/>
<path d="M333.955 114.235H305.448V142.75H333.955V114.235Z" stroke="#DDDDDD" stroke-width="1.5"/>
<path d="M619.019 114.235H590.513V142.75H619.019V114.235Z" stroke="#DDDDDD" stroke-width="1.5"/>
<path d="M647.526 114.235H619.019V142.75H647.526V114.235Z" stroke="#DDDDDD" stroke-width="1.5"/>
<path d="M676.032 114.235H647.526V142.75H676.032V114.235Z" stroke="#DDDDDD" stroke-width="1.5"/>
<path d="M704.539 114.235H676.032V142.75H704.539V114.235Z" stroke="#DDDDDD" stroke-width="1.5"/>
<path d="M733.045 114.235H704.539V142.75H733.045V114.235Z" stroke="#DDDDDD" stroke-width="1.5"/>
<path d="M761.552 114.235H733.045V142.75H761.552V114.235Z" stroke="#DDDDDD" stroke-width="1.5"/>
<path d="M818.565 114.235H790.058V142.75H818.565V114.235Z" stroke="#DDDDDD" stroke-width="1.5"/>
<path d="M847.071 114.235H818.565V142.75H847.071V114.235Z" fill="#E2E7F0" fill-opacity="0.3" stroke="#DDDDDD" stroke-width="1.5"/>
<path d="M961.097 114.235H932.591V142.75H961.097V114.235Z" stroke="#DDDDDD" stroke-width="1.5"/>
<path d="M989.604 114.235H961.097V142.75H989.604V114.235Z" stroke="#DDDDDD" stroke-width="1.5"/>
<path d="M1018.11 114.235H989.604V142.75H1018.11V114.235Z" stroke="#DDDDDD" stroke-width="1.5"/>
<path d="M1046.62 114.235H1018.11V142.75H1046.62V114.235Z" stroke="#DDDDDD" stroke-width="1.5"/>
<path d="M1075.12 114.235H1046.62V142.75H1075.12V114.235Z" stroke="#DDDDDD" stroke-width="1.5"/>
<path d="M20.3835 142.75H-8.12292V171.265H20.3835V142.75Z" stroke="#DDDDDD" stroke-width="1.5"/>
<path d="M48.89 142.75H20.3835V171.265H48.89V142.75Z" stroke="#DDDDDD" stroke-width="1.5"/>
<path d="M77.3965 142.75H48.89V171.265H77.3965V142.75Z" stroke="#DDDDDD" stroke-width="1.5"/>
<path d="M105.903 142.75H77.3965V171.265H105.903V142.75Z" stroke="#DDDDDD" stroke-width="1.5"/>
<path d="M134.409 142.75H105.903V171.265H134.409V142.75Z" stroke="#DDDDDD" stroke-width="1.5"/>
<path d="M162.916 142.75H134.409V171.265H162.916V142.75Z" stroke="#DDDDDD" stroke-width="1.5"/>
<path d="M191.422 142.75H162.916V171.265H191.422V142.75Z" stroke="#DDDDDD" stroke-width="1.5"/>
<path d="M219.929 142.75H191.422V171.265H219.929V142.75Z" stroke="#DDDDDD" stroke-width="1.5"/>
<path d="M875.578 142.75H847.071V171.265H875.578V142.75Z" stroke="#DDDDDD" stroke-width="1.5"/>
<path d="M904.084 142.75H875.578V171.265H904.084V142.75Z" stroke="#DDDDDD" stroke-width="1.5"/>
<path d="M932.591 142.75H904.084V171.265H932.591V142.75Z" stroke="#DDDDDD" stroke-width="1.5"/>
<path d="M961.097 142.75H932.591V171.265H961.097V142.75Z" stroke="#DDDDDD" stroke-width="1.5"/>
<path d="M989.604 142.75H961.097V171.265H989.604V142.75Z" fill="#E2E7F0" fill-opacity="0.3" stroke="#DDDDDD" stroke-width="1.5"/>
<path d="M1018.11 142.75H989.604V171.265H1018.11V142.75Z" stroke="#DDDDDD" stroke-width="1.5"/>
<path d="M1046.62 142.75H1018.11V171.265H1046.62V142.75Z" stroke="#DDDDDD" stroke-width="1.5"/>
<path d="M1075.12 142.75H1046.62V171.265H1075.12V142.75Z" stroke="#DDDDDD" stroke-width="1.5"/>
<path d="M20.3835 171.265H-8.12292V199.781H20.3835V171.265Z" fill="#E2E7F0" fill-opacity="0.3" stroke="#DDDDDD" stroke-width="1.5"/>
<path d="M48.89 171.265H20.3835V199.781H48.89V171.265Z" stroke="#DDDDDD" stroke-width="1.5"/>
<path d="M77.3965 171.265H48.89V199.781H77.3965V171.265Z" stroke="#DDDDDD" stroke-width="1.5"/>
<path d="M191.422 171.265H162.916V199.781H191.422V171.265Z" fill="#E2E7F0" fill-opacity="0.3" stroke="#DDDDDD" stroke-width="1.5"/>
<path d="M219.929 171.265H191.422V199.781H219.929V171.265Z" stroke="#DDDDDD" stroke-width="1.5"/>
<path d="M276.942 171.265H248.435V199.781H276.942V171.265Z" stroke="#DDDDDD" stroke-width="1.5"/>
<path d="M305.448 171.265H276.942V199.781H305.448V171.265Z" stroke="#DDDDDD" stroke-width="1.5"/>
<path d="M847.071 171.265H818.565V199.781H847.071V171.265Z" stroke="#DDDDDD" stroke-width="1.5"/>
<path d="M875.578 171.265H847.071V199.781H875.578V171.265Z" fill="#E2E7F0" fill-opacity="0.3" stroke="#DDDDDD" stroke-width="1.5"/>
<path d="M904.084 171.265H875.578V199.781H904.084V171.265Z" stroke="#DDDDDD" stroke-width="1.5"/>
<path d="M932.591 171.265H904.084V199.781H932.591V171.265Z" stroke="#DDDDDD" stroke-width="1.5"/>
<path d="M961.097 171.265H932.591V199.781H961.097V171.265Z" stroke="#DDDDDD" stroke-width="1.5"/>
<path d="M1075.12 171.265H1046.62V199.781H1075.12V171.265Z" stroke="#DDDDDD" stroke-width="1.5"/>
<path d="M20.3835 199.781H-8.12292V228.296H20.3835V199.781Z" stroke="#DDDDDD" stroke-width="1.5"/>
<path d="M48.89 199.781H20.3835V228.296H48.89V199.781Z" stroke="#DDDDDD" stroke-width="1.5"/>
<path d="M77.3965 199.781H48.89V228.296H77.3965V199.781Z" stroke="#DDDDDD" stroke-width="1.5"/>
<path d="M105.903 199.781H77.3965V228.296H105.903V199.781Z" stroke="#DDDDDD" stroke-width="1.5"/>
<path d="M134.409 199.781H105.903V228.296H134.409V199.781Z" stroke="#DDDDDD" stroke-width="1.5"/>
<path d="M162.916 199.781H134.409V228.296H162.916V199.781Z" fill="#E2E7F0" fill-opacity="0.3" stroke="#DDDDDD" stroke-width="1.5"/>
<path d="M305.448 199.781H276.942V228.296H305.448V199.781Z" stroke="#DDDDDD" stroke-width="1.5"/>
<path d="M333.955 199.781H305.448V228.296H333.955V199.781Z" stroke="#DDDDDD" stroke-width="1.5"/>
<path d="M619.019 199.781H590.513V228.296H619.019V199.781Z" stroke="#DDDDDD" stroke-width="1.5"/>
<path d="M647.526 199.781H619.019V228.296H647.526V199.781Z" stroke="#DDDDDD" stroke-width="1.5"/>
<path d="M676.032 199.781H647.526V228.296H676.032V199.781Z" stroke="#DDDDDD" stroke-width="1.5"/>
<path d="M704.539 199.781H676.032V228.296H704.539V199.781Z" stroke="#DDDDDD" stroke-width="1.5"/>
<path d="M733.045 199.781H704.539V228.296H733.045V199.781Z" stroke="#DDDDDD" stroke-width="1.5"/>
<path d="M761.552 199.781H733.045V228.296H761.552V199.781Z" stroke="#DDDDDD" stroke-width="1.5"/>
<path d="M790.058 199.781H761.552V228.296H790.058V199.781Z" stroke="#DDDDDD" stroke-width="1.5"/>
<path d="M818.565 199.781H790.058V228.296H818.565V199.781Z" stroke="#DDDDDD" stroke-width="1.5"/>
<path d="M989.604 199.781H961.097V228.296H989.604V199.781Z" stroke="#DDDDDD" stroke-width="1.5"/>
<path d="M1018.11 199.781H989.604V228.296H1018.11V199.781Z" stroke="#DDDDDD" stroke-width="1.5"/>
<path d="M1046.62 199.781H1018.11V228.296H1046.62V199.781Z" stroke="#DDDDDD" stroke-width="1.5"/>
<path d="M1075.12 199.781H1046.62V228.296H1075.12V199.781Z" stroke="#DDDDDD" stroke-width="1.5"/>
<path d="M20.3835 228.296H-8.12292V256.811H20.3835V228.296Z" stroke="#DDDDDD" stroke-width="1.5"/>
<path d="M48.89 228.296H20.3835V256.811H48.89V228.296Z" stroke="#DDDDDD" stroke-width="1.5"/>
<path d="M77.3965 228.296H48.89V256.811H77.3965V228.296Z" stroke="#DDDDDD" stroke-width="1.5"/>
<path d="M105.903 228.296H77.3965V256.811H105.903V228.296Z" fill="#E2E7F0" fill-opacity="0.3" stroke="#DDDDDD" stroke-width="1.5"/>
<path d="M134.409 228.296H105.903V256.811H134.409V228.296Z" stroke="#DDDDDD" stroke-width="1.5"/>
<path d="M162.916 228.296H134.409V256.811H162.916V228.296Z" stroke="#DDDDDD" stroke-width="1.5"/>
<path d="M191.422 228.296H162.916V256.811H191.422V228.296Z" stroke="#DDDDDD" stroke-width="1.5"/>
<path d="M219.929 228.296H191.422V256.811H219.929V228.296Z" stroke="#DDDDDD" stroke-width="1.5"/>
<path d="M305.448 228.296H276.942V256.811H305.448V228.296Z" stroke="#DDDDDD" stroke-width="1.5"/>
<path d="M818.565 228.296H790.058V256.811H818.565V228.296Z" stroke="#DDDDDD" stroke-width="1.5"/>
<path d="M847.071 228.296H818.565V256.811H847.071V228.296Z" stroke="#DDDDDD" stroke-width="1.5"/>
<path d="M989.604 228.296H961.097V256.811H989.604V228.296Z" stroke="#DDDDDD" stroke-width="1.5"/>
<path d="M1018.11 228.296H989.604V256.811H1018.11V228.296Z" stroke="#DDDDDD" stroke-width="1.5"/>
<path d="M1046.62 228.296H1018.11V256.811H1046.62V228.296Z" fill="#E2E7F0" fill-opacity="0.3" stroke="#DDDDDD" stroke-width="1.5"/>
<path d="M1075.12 228.296H1046.62V256.811H1075.12V228.296Z" stroke="#DDDDDD" stroke-width="1.5"/>
<path d="M20.3835 256.811H-8.12292V285.327H20.3835V256.811Z" stroke="#DDDDDD" stroke-width="1.5"/>
<path d="M105.903 256.811H77.3965V285.327H105.903V256.811Z" stroke="#DDDDDD" stroke-width="1.5"/>
<path d="M191.422 256.811H162.916V285.327H191.422V256.811Z" stroke="#DDDDDD" stroke-width="1.5"/>
<path d="M219.929 256.811H191.422V285.327H219.929V256.811Z" fill="#E2E7F0" fill-opacity="0.3" stroke="#DDDDDD" stroke-width="1.5"/>
<path d="M333.955 256.811H305.448V285.327H333.955V256.811Z" stroke="#DDDDDD" stroke-width="1.5"/>
<path d="M362.461 256.811H333.955V285.327H362.461V256.811Z" stroke="#DDDDDD" stroke-width="1.5"/>
<path d="M390.968 256.811H362.461V285.327H390.968V256.811Z" stroke="#DDDDDD" stroke-width="1.5"/>
<path d="M419.474 256.811H390.968V285.327H419.474V256.811Z" fill="#E2E7F0" fill-opacity="0.3" stroke="#DDDDDD" stroke-width="1.5"/>
<path d="M447.981 256.811H419.474V285.327H447.981V256.811Z" stroke="#DDDDDD" stroke-width="1.5"/>
<path d="M476.487 256.811H447.981V285.327H476.487V256.811Z" stroke="#DDDDDD" stroke-width="1.5"/>
<path d="M790.058 256.811H761.552V285.327H790.058V256.811Z" stroke="#DDDDDD" stroke-width="1.5"/>
<path opacity="0.99" d="M818.565 256.811H790.058V285.327H818.565V256.811Z" stroke="#DDDDDD" stroke-width="1.5"/>
<path d="M904.084 256.811H875.578V285.327H904.084V256.811Z" stroke="#DDDDDD" stroke-width="1.5"/>
<path d="M932.591 256.811H904.084V285.327H932.591V256.811Z" stroke="#DDDDDD" stroke-width="1.5"/>
<path d="M961.097 256.811H932.591V285.327H961.097V256.811Z" stroke="#DDDDDD" stroke-width="1.5"/>
<path d="M1075.12 256.811H1046.62V285.327H1075.12V256.811Z" stroke="#DDDDDD" stroke-width="1.5"/>
<path d="M20.3835 285.327H-8.12292V313.842H20.3835V285.327Z" stroke="#DDDDDD" stroke-width="1.5"/>
<path d="M48.89 285.327H20.3835V313.842H48.89V285.327Z" stroke="#DDDDDD" stroke-width="1.5"/>
<path d="M77.3965 285.327H48.89V313.842H77.3965V285.327Z" stroke="#DDDDDD" stroke-width="1.5"/>
<path d="M105.903 285.327H77.3965V313.842H105.903V285.327Z" stroke="#DDDDDD" stroke-width="1.5"/>
<path d="M134.409 285.327H105.903V313.842H134.409V285.327Z" stroke="#DDDDDD" stroke-width="1.5"/>
<path d="M419.474 285.327H390.968V313.842H419.474V285.327Z" stroke="#DDDDDD" stroke-width="1.5"/>
<path d="M447.981 285.327H419.474V313.842H447.981V285.327Z" stroke="#DDDDDD" stroke-width="1.5"/>
<path d="M476.487 285.327H447.981V313.842H476.487V285.327Z" stroke="#DDDDDD" stroke-width="1.5"/>
<path d="M676.032 285.327H647.526V313.842H676.032V285.327Z" stroke="#DDDDDD" stroke-width="1.5"/>
<path d="M704.539 285.327H676.032V313.842H704.539V285.327Z" stroke="#DDDDDD" stroke-width="1.5"/>
<path d="M733.045 285.327H704.539V313.842H733.045V285.327Z" stroke="#DDDDDD" stroke-width="1.5"/>
<path d="M761.552 285.327H733.045V313.842H761.552V285.327Z" stroke="#DDDDDD" stroke-width="1.5"/>
<path d="M790.058 285.327H761.552V313.842H790.058V285.327Z" fill="#E2E7F0" fill-opacity="0.3" stroke="#DDDDDD" stroke-width="1.5"/>
<path d="M818.565 285.327H790.058V313.842H818.565V285.327Z" stroke="#DDDDDD" stroke-width="1.5"/>
<path d="M847.071 285.327H818.565V313.842H847.071V285.327Z" stroke="#DDDDDD" stroke-width="1.5"/>
<path d="M904.084 285.327H875.578V313.842H904.084V285.327Z" stroke="#DDDDDD" stroke-width="1.5"/>
<path d="M932.591 285.327H904.084V313.842H932.591V285.327Z" stroke="#DDDDDD" stroke-width="1.5"/>
<path d="M961.097 285.327H932.591V313.842H961.097V285.327Z" stroke="#DDDDDD" stroke-width="1.5"/>
<path d="M989.604 285.327H961.097V313.842H989.604V285.327Z" fill="#E2E7F0" fill-opacity="0.3" stroke="#DDDDDD" stroke-width="1.5"/>
<path d="M1018.11 285.327H989.604V313.842H1018.11V285.327Z" stroke="#DDDDDD" stroke-width="1.5"/>
<path d="M1046.62 285.327H1018.11V313.842H1046.62V285.327Z" stroke="#DDDDDD" stroke-width="1.5"/>
<path d="M1075.12 285.327H1046.62V313.842H1075.12V285.327Z" stroke="#DDDDDD" stroke-width="1.5"/>
<path d="M20.3835 313.842H-8.12292V342.357H20.3835V313.842Z" stroke="#DDDDDD" stroke-width="1.5"/>
<path d="M48.89 313.842H20.3835V342.357H48.89V313.842Z" stroke="#DDDDDD" stroke-width="1.5"/>
<path d="M77.3965 313.842H48.89V342.357H77.3965V313.842Z" fill="#E2E7F0" fill-opacity="0.3" stroke="#DDDDDD" stroke-width="1.5"/>
<path d="M105.903 313.842H77.3965V342.357H105.903V313.842Z" stroke="#DDDDDD" stroke-width="1.5"/>
<path d="M134.409 313.842H105.903V342.357H134.409V313.842Z" stroke="#DDDDDD" stroke-width="1.5"/>
<path d="M162.916 313.842H134.409V342.357H162.916V313.842Z" stroke="#DDDDDD" stroke-width="1.5"/>
<path d="M191.422 313.842H162.916V342.357H191.422V313.842Z" stroke="#DDDDDD" stroke-width="1.5"/>
<path d="M219.929 313.842H191.422V342.357H219.929V313.842Z" stroke="#DDDDDD" stroke-width="1.5"/>
<path d="M248.435 313.842H219.929V342.357H248.435V313.842Z" stroke="#DDDDDD" stroke-width="1.5"/>
<path d="M276.942 313.842H248.435V342.357H276.942V313.842Z" stroke="#DDDDDD" stroke-width="1.5"/>
<path d="M305.448 313.842H276.942V342.357H305.448V313.842Z" stroke="#DDDDDD" stroke-width="1.5"/>
<path d="M333.955 313.842H305.448V342.357H333.955V313.842Z" stroke="#DDDDDD" stroke-width="1.5"/>
<path d="M362.461 313.842H333.955V342.357H362.461V313.842Z" fill="#E2E7F0" fill-opacity="0.3" stroke="#DDDDDD" stroke-width="1.5"/>
<path d="M619.019 313.842H590.513V342.357H619.019V313.842Z" stroke="#DDDDDD" stroke-width="1.5"/>
<path d="M647.526 313.842H619.019V342.357H647.526V313.842Z" stroke="#DDDDDD" stroke-width="1.5"/>
<path d="M676.032 313.842H647.526V342.357H676.032V313.842Z" stroke="#DDDDDD" stroke-width="1.5"/>
<path d="M704.539 313.842H676.032V342.357H704.539V313.842Z" stroke="#DDDDDD" stroke-width="1.5"/>
<path d="M733.045 313.842H704.539V342.357H733.045V313.842Z" fill="#E2E7F0" fill-opacity="0.3" stroke="#DDDDDD" stroke-width="1.5"/>
<path d="M761.552 313.842H733.045V342.357H761.552V313.842Z" stroke="#DDDDDD" stroke-width="1.5"/>
<path d="M790.058 313.842H761.552V342.357H790.058V313.842Z" stroke="#DDDDDD" stroke-width="1.5"/>
<path d="M818.565 313.842H790.058V342.357H818.565V313.842Z" stroke="#DDDDDD" stroke-width="1.5"/>
<path d="M847.071 313.842H818.565V342.357H847.071V313.842Z" stroke="#DDDDDD" stroke-width="1.5"/>
<path d="M875.578 313.842H847.071V342.357H875.578V313.842Z" stroke="#DDDDDD" stroke-width="1.5"/>
<path d="M904.084 313.842H875.578V342.357H904.084V313.842Z" stroke="#DDDDDD" stroke-width="1.5"/>
<path d="M932.591 313.842H904.084V342.357H932.591V313.842Z" stroke="#DDDDDD" stroke-width="1.5"/>
<path d="M961.097 313.842H932.591V342.357H961.097V313.842Z" stroke="#DDDDDD" stroke-width="1.5"/>
<path d="M989.604 313.842H961.097V342.357H989.604V313.842Z" stroke="#DDDDDD" stroke-width="1.5"/>
<path d="M1018.11 313.842H989.604V342.357H1018.11V313.842Z" stroke="#DDDDDD" stroke-width="1.5"/>
<path d="M1046.62 313.842H1018.11V342.357H1046.62V313.842Z" stroke="#DDDDDD" stroke-width="1.5"/>
<path d="M1075.12 313.842H1046.62V342.357H1075.12V313.842Z" stroke="#DDDDDD" stroke-width="1.5"/>
<path d="M20.3835 342.357H-8.12292V370.873H20.3835V342.357Z" stroke="#DDDDDD" stroke-width="1.5"/>
<path d="M48.89 342.357H20.3835V370.873H48.89V342.357Z" stroke="#DDDDDD" stroke-width="1.5"/>
<path d="M77.3965 342.357H48.89V370.873H77.3965V342.357Z" stroke="#DDDDDD" stroke-width="1.5"/>
<path d="M105.903 342.357H77.3965V370.873H105.903V342.357Z" stroke="#DDDDDD" stroke-width="1.5"/>
<path d="M134.409 342.357H105.903V370.873H134.409V342.357Z" stroke="#DDDDDD" stroke-width="1.5"/>
<path d="M619.019 342.357H590.513V370.873H619.019V342.357Z" stroke="#DDDDDD" stroke-width="1.5"/>
<path d="M647.526 342.357H619.019V370.873H647.526V342.357Z" stroke="#DDDDDD" stroke-width="1.5"/>
<path d="M676.032 342.357H647.526V370.873H676.032V342.357Z" stroke="#DDDDDD" stroke-width="1.5"/>
<path d="M704.539 342.357H676.032V370.873H704.539V342.357Z" stroke="#DDDDDD" stroke-width="1.5"/>
<path d="M733.045 342.357H704.539V370.873H733.045V342.357Z" stroke="#DDDDDD" stroke-width="1.5"/>
<path d="M761.552 342.357H733.045V370.873H761.552V342.357Z" stroke="#DDDDDD" stroke-width="1.5"/>
<path d="M790.058 342.357H761.552V370.873H790.058V342.357Z" stroke="#DDDDDD" stroke-width="1.5"/>
<path d="M818.565 342.357H790.058V370.873H818.565V342.357Z" stroke="#DDDDDD" stroke-width="1.5"/>
<path d="M989.604 342.357H961.097V370.873H989.604V342.357Z" stroke="#DDDDDD" stroke-width="1.5"/>
<path d="M1018.11 342.357H989.604V370.873H1018.11V342.357Z" stroke="#DDDDDD" stroke-width="1.5"/>
<path d="M1046.62 342.357H1018.11V370.873H1046.62V342.357Z" stroke="#DDDDDD" stroke-width="1.5"/>
<path d="M1075.12 342.357H1046.62V370.873H1075.12V342.357Z" stroke="#DDDDDD" stroke-width="1.5"/>
<path d="M20.3835 370.873H-8.12292V399.388H20.3835V370.873Z" stroke="#DDDDDD" stroke-width="1.5"/>
<path d="M48.89 370.873H20.3835V399.388H48.89V370.873Z" stroke="#DDDDDD" stroke-width="1.5"/>
<path d="M77.3965 370.873H48.89V399.388H77.3965V370.873Z" stroke="#DDDDDD" stroke-width="1.5"/>
<path d="M105.903 370.873H77.3965V399.388H105.903V370.873Z" stroke="#DDDDDD" stroke-width="1.5"/>
<path d="M134.409 370.873H105.903V399.388H134.409V370.873Z" stroke="#DDDDDD" stroke-width="1.5"/>
<path d="M162.916 370.873H134.409V399.388H162.916V370.873Z" stroke="#DDDDDD" stroke-width="1.5"/>
<path d="M191.422 370.873H162.916V399.388H191.422V370.873Z" stroke="#DDDDDD" stroke-width="1.5"/>
<path d="M219.929 370.873H191.422V399.388H219.929V370.873Z" stroke="#DDDDDD" stroke-width="1.5"/>
<path d="M276.942 370.873H248.435V399.388H276.942V370.873Z" stroke="#DDDDDD" stroke-width="1.5"/>
<path d="M305.448 370.873H276.942V399.388H305.448V370.873Z" stroke="#DDDDDD" stroke-width="1.5"/>
<path d="M333.955 370.873H305.448V399.388H333.955V370.873Z" stroke="#DDDDDD" stroke-width="1.5"/>
<path d="M362.461 370.873H333.955V399.388H362.461V370.873Z" stroke="#DDDDDD" stroke-width="1.5"/>
<path d="M562.006 370.873H533.5V399.388H562.006V370.873Z" stroke="#DDDDDD" stroke-width="1.5"/>
<path d="M590.513 370.873H562.006V399.388H590.513V370.873Z" stroke="#DDDDDD" stroke-width="1.5"/>
<path d="M619.019 370.873H590.513V399.388H619.019V370.873Z" stroke="#DDDDDD" stroke-width="1.5"/>
<path d="M647.526 370.873H619.019V399.388H647.526V370.873Z" stroke="#DDDDDD" stroke-width="1.5"/>
<path d="M676.032 370.873H647.526V399.388H676.032V370.873Z" stroke="#DDDDDD" stroke-width="1.5"/>
<path d="M704.539 370.873H676.032V399.388H704.539V370.873Z" stroke="#DDDDDD" stroke-width="1.5"/>
<path d="M733.045 370.873H704.539V399.388H733.045V370.873Z" stroke="#DDDDDD" stroke-width="1.5"/>
<path d="M790.058 370.873H761.552V399.388H790.058V370.873Z" stroke="#DDDDDD" stroke-width="1.5"/>
<path d="M847.071 370.873H818.565V399.388H847.071V370.873Z" fill="#E2E7F0" fill-opacity="0.3" stroke="#DDDDDD" stroke-width="1.5"/>
<path d="M875.578 370.873H847.071V399.388H875.578V370.873Z" stroke="#DDDDDD" stroke-width="1.5"/>
<path d="M1046.62 370.873H1018.11V399.388H1046.62V370.873Z" stroke="#DDDDDD" stroke-width="1.5"/>
<path d="M1075.12 370.873H1046.62V399.388H1075.12V370.873Z" fill="#E2E7F0" fill-opacity="0.3" stroke="#DDDDDD" stroke-width="1.5"/>
<path d="M20.3835 427.903V399.388H-8.12292V427.903" stroke="#DDDDDD" stroke-width="1.5"/>
<path d="M48.89 427.903V399.388H20.3835V427.903" stroke="#DDDDDD" stroke-width="1.5"/>
<path d="M77.3965 427.903V399.388H48.89V427.903" stroke="#DDDDDD" stroke-width="1.5"/>
<path d="M105.903 427.903V399.388H77.3965V427.903" stroke="#DDDDDD" stroke-width="1.5"/>
<path d="M134.409 427.903V399.388H105.903V427.903" stroke="#DDDDDD" stroke-width="1.5"/>
<path d="M162.916 427.903V399.388H134.409V427.903" stroke="#DDDDDD" stroke-width="1.5"/>
<path d="M333.955 427.903V399.388H305.448V427.903" stroke="#DDDDDD" stroke-width="1.5"/>
<path d="M362.461 427.903V399.388H333.955V427.903" stroke="#DDDDDD" stroke-width="1.5"/>
<path d="M390.968 427.903V399.388H362.461V427.903" stroke="#DDDDDD" stroke-width="1.5"/>
<path d="M419.474 427.903V399.388H390.968V427.903" stroke="#DDDDDD" stroke-width="1.5"/>
<path d="M447.981 427.903V399.388H419.474V427.903" stroke="#DDDDDD" stroke-width="1.5"/>
<path d="M476.487 427.903V399.388H447.981V427.903" stroke="#DDDDDD" stroke-width="1.5"/>
<path d="M904.084 427.903V399.388H875.578V427.903" stroke="#DDDDDD" stroke-width="1.5"/>
<path d="M932.591 427.903V399.388H904.084V427.903" stroke="#DDDDDD" stroke-width="1.5"/>
<path d="M961.097 427.903V399.388H932.591V427.903" stroke="#DDDDDD" stroke-width="1.5"/>
<path d="M989.604 427.903V399.388H961.097V427.903" stroke="#DDDDDD" stroke-width="1.5"/>
<path d="M1018.11 427.903V399.388H989.604V427.903" stroke="#DDDDDD" stroke-width="1.5"/>
<path d="M1046.62 427.903V399.388H1018.11V427.903" stroke="#DDDDDD" stroke-width="1.5"/>
<path d="M1075.12 427.903V399.388H1046.62V427.903" stroke="#DDDDDD" stroke-width="1.5"/>
<path d="M20.4713 116.428L20.4713 169.072" stroke="url(#paint0_linear_136_3)" stroke-width="1.5" stroke-linecap="round" stroke-linejoin="round"/>
<g filter="url(#filter0_d_136_3)">
<path d="M932.591 177.407V124.763" stroke="url(#paint1_linear_136_3)" stroke-width="1.5" stroke-linecap="round" stroke-linejoin="round"/>
<path d="M162.916 200V147.356" stroke="url(#paint2_linear_136_3)" stroke-width="1.5" stroke-linecap="round" stroke-linejoin="round"/>
<path d="M219.994 58.3961L219.994 111.04" stroke="url(#paint3_linear_136_3)" stroke-width="1.5" stroke-linecap="round" stroke-linejoin="round"/>
<path d="M790.091 58.3961L790.091 111.04" stroke="url(#paint4_linear_136_3)" stroke-width="1.5" stroke-linecap="round" stroke-linejoin="round"/>
</g>
<rect x="263.989" width="539.022" height="399.388" fill="url(#paint5_radial_136_3)"/>
</g>
<path d="M88.5123 347.348L79.947 332.539C79.5543 331.859 78.5864 331.302 77.7963 331.302H72.4488C71.2059 331.302 70.6963 330.427 71.3163 329.358L74.2488 324.301C74.4815 323.9 74.481 323.406 74.2475 323.005C74.0139 322.604 73.5828 322.357 73.1163 322.357H65.6565C64.8663 322.357 63.8963 322.913 63.5008 323.592L49.0052 348.488C48.6098 349.167 48.6095 350.279 49.0047 350.958L52.7345 357.37C53.3559 358.439 54.3751 358.44 54.9992 357.373L57.9137 352.391C58.5378 351.324 59.557 351.326 60.1784 352.394L62.8206 356.936C63.2157 357.616 64.1854 358.171 64.9756 358.171H82.2135C83.0038 358.171 83.9735 357.616 84.3686 356.936L88.508 349.82C88.9031 349.141 88.905 348.028 88.5123 347.348ZM76.9449 346.635C77.5624 347.706 77.0508 348.582 75.8079 348.582H62.3996C61.1567 348.582 60.6482 347.707 61.2696 346.639L67.9791 335.104C68.6005 334.036 69.6174 334.036 70.2388 335.104L76.9449 346.635Z" fill="#20294F"/>
<path d="M87.3842 181.137C84.8785 181.137 82.6626 180.728 80.7365 179.909C78.8274 179.074 77.3274 177.813 76.2365 176.125C75.1455 174.438 74.6001 172.29 74.6001 169.682C74.6001 167.534 74.9666 165.702 75.6995 164.185C76.4325 162.651 77.4552 161.398 78.7677 160.426C80.0802 159.455 81.6058 158.713 83.3444 158.202C85.1001 157.691 86.9921 157.358 89.0205 157.205C91.2194 157.034 92.9836 156.83 94.3132 156.591C95.6597 156.336 96.6313 155.986 97.2279 155.543C97.8245 155.083 98.1228 154.478 98.1228 153.728V153.625C98.1228 152.603 97.7308 151.818 96.9467 151.273C96.1626 150.728 95.1569 150.455 93.9296 150.455C92.583 150.455 91.4836 150.753 90.6313 151.35C89.7961 151.929 89.2933 152.824 89.1228 154.034H76.1342C76.3046 151.648 77.0632 149.449 78.4097 147.438C79.7734 145.409 81.7592 143.79 84.3671 142.58C86.9751 141.353 90.2308 140.739 94.1342 140.739C96.9467 140.739 99.4694 141.071 101.702 141.736C103.935 142.384 105.836 143.296 107.404 144.472C108.972 145.631 110.165 146.995 110.984 148.563C111.819 150.114 112.236 151.801 112.236 153.625V180.523H99.0433V175H98.7365C97.9524 176.466 96.9978 177.651 95.8728 178.554C94.7649 179.458 93.495 180.114 92.0632 180.523C90.6484 180.932 89.0887 181.137 87.3842 181.137ZM91.9865 172.239C93.0603 172.239 94.066 172.017 95.0035 171.574C95.958 171.131 96.7336 170.492 97.3302 169.657C97.9268 168.821 98.2251 167.807 98.2251 166.614V163.341C97.8501 163.495 97.4495 163.639 97.0234 163.776C96.6143 163.912 96.1711 164.04 95.6938 164.159C95.2336 164.279 94.7393 164.389 94.2109 164.492C93.6995 164.594 93.1626 164.688 92.6001 164.773C91.5092 164.943 90.6143 165.225 89.9154 165.617C89.2336 165.992 88.7222 166.461 88.3813 167.023C88.0575 167.568 87.8955 168.182 87.8955 168.864C87.8955 169.955 88.2791 170.79 89.0461 171.37C89.8132 171.949 90.7933 172.239 91.9865 172.239ZM131.151 141.25L136.878 153.421L142.912 141.25H156.923L146.389 160.887L157.435 180.523H143.526L136.878 168.046L130.435 180.523H116.321L127.469 160.887L117.037 141.25H131.151ZM161.941 180.523V141.25H176.055V180.523H161.941ZM168.998 137.159C167.089 137.159 165.452 136.529 164.089 135.267C162.725 134.006 162.043 132.489 162.043 130.716C162.043 128.943 162.725 127.426 164.089 126.165C165.452 124.904 167.089 124.273 168.998 124.273C170.924 124.273 172.56 124.904 173.907 126.165C175.271 127.426 175.952 128.943 175.952 130.716C175.952 132.489 175.271 134.006 173.907 135.267C172.56 136.529 170.924 137.159 168.998 137.159ZM202.166 181.239C197.905 181.239 194.257 180.395 191.223 178.708C188.189 177.003 185.862 174.634 184.243 171.6C182.624 168.549 181.814 165.012 181.814 160.989C181.814 156.966 182.624 153.438 184.243 150.404C185.862 147.353 188.189 144.983 191.223 143.296C194.257 141.591 197.905 140.739 202.166 140.739C206.428 140.739 210.075 141.591 213.109 143.296C216.143 144.983 218.47 147.353 220.089 150.404C221.709 153.438 222.518 156.966 222.518 160.989C222.518 165.012 221.709 168.549 220.089 171.6C218.47 174.634 216.143 177.003 213.109 178.708C210.075 180.395 206.428 181.239 202.166 181.239ZM202.268 170.807C203.462 170.807 204.493 170.407 205.362 169.605C206.231 168.804 206.905 167.662 207.382 166.179C207.859 164.696 208.098 162.932 208.098 160.887C208.098 158.824 207.859 157.06 207.382 155.594C206.905 154.111 206.231 152.969 205.362 152.168C204.493 151.367 203.462 150.966 202.268 150.966C201.007 150.966 199.925 151.367 199.021 152.168C198.118 152.969 197.428 154.111 196.95 155.594C196.473 157.06 196.234 158.824 196.234 160.887C196.234 162.932 196.473 164.696 196.95 166.179C197.428 167.662 198.118 168.804 199.021 169.605C199.925 170.407 201.007 170.807 202.268 170.807ZM228.246 180.523V141.25H241.643V148.716H242.053C242.871 146.262 244.268 144.318 246.246 142.887C248.223 141.455 250.575 140.739 253.303 140.739C256.064 140.739 258.442 141.472 260.436 142.938C262.43 144.387 263.632 146.313 264.041 148.716H264.45C265.115 146.313 266.53 144.387 268.695 142.938C270.859 141.472 273.399 140.739 276.314 140.739C280.081 140.739 283.132 141.949 285.467 144.37C287.82 146.79 288.996 150.012 288.996 154.034V180.523H274.882V157.614C274.882 155.892 274.447 154.546 273.578 153.574C272.709 152.586 271.541 152.091 270.075 152.091C268.626 152.091 267.476 152.586 266.624 153.574C265.788 154.546 265.371 155.892 265.371 157.614V180.523H251.871V157.614C251.871 155.892 251.436 154.546 250.567 153.574C249.697 152.586 248.53 152.091 247.064 152.091C246.092 152.091 245.257 152.313 244.558 152.756C243.859 153.199 243.314 153.838 242.922 154.674C242.547 155.492 242.359 156.472 242.359 157.614V180.523H228.246ZM321.729 154.341V164.978H297.184V154.341H321.729ZM344.242 158.432V180.523H330.128V128.159H343.731V148.716H344.14C345.026 146.211 346.501 144.259 348.563 142.861C350.626 141.446 353.106 140.739 356.003 140.739C358.782 140.739 361.194 141.37 363.239 142.631C365.302 143.892 366.896 145.631 368.021 147.847C369.163 150.063 369.725 152.603 369.708 155.466V180.523H355.594V158.432C355.611 156.489 355.126 154.963 354.137 153.855C353.165 152.747 351.776 152.193 349.969 152.193C348.827 152.193 347.822 152.449 346.952 152.961C346.1 153.455 345.435 154.171 344.958 155.108C344.498 156.029 344.259 157.137 344.242 158.432ZM395.596 181.239C391.334 181.239 387.687 180.395 384.653 178.708C381.619 177.003 379.292 174.634 377.673 171.6C376.053 168.549 375.244 165.012 375.244 160.989C375.244 156.966 376.053 153.438 377.673 150.404C379.292 147.353 381.619 144.983 384.653 143.296C387.687 141.591 391.334 140.739 395.596 140.739C399.857 140.739 403.505 141.591 406.539 143.296C409.573 144.983 411.9 147.353 413.519 150.404C415.138 153.438 415.948 156.966 415.948 160.989C415.948 165.012 415.138 168.549 413.519 171.6C411.9 174.634 409.573 177.003 406.539 178.708C403.505 180.395 399.857 181.239 395.596 181.239ZM395.698 170.807C396.891 170.807 397.923 170.407 398.792 169.605C399.661 168.804 400.334 167.662 400.812 166.179C401.289 164.696 401.528 162.932 401.528 160.887C401.528 158.824 401.289 157.06 400.812 155.594C400.334 154.111 399.661 152.969 398.792 152.168C397.923 151.367 396.891 150.966 395.698 150.966C394.437 150.966 393.354 151.367 392.451 152.168C391.548 152.969 390.857 154.111 390.38 155.594C389.903 157.06 389.664 158.824 389.664 160.887C389.664 162.932 389.903 164.696 390.38 166.179C390.857 167.662 391.548 168.804 392.451 169.605C393.354 170.407 394.437 170.807 395.698 170.807ZM435.789 158.432V180.523H421.675V141.25H435.073V148.716H435.482C436.334 146.228 437.834 144.276 439.982 142.861C442.147 141.446 444.67 140.739 447.55 140.739C450.329 140.739 452.741 141.378 454.786 142.657C456.849 143.918 458.442 145.657 459.567 147.872C460.709 150.088 461.272 152.62 461.255 155.466V180.523H447.141V158.432C447.158 156.489 446.664 154.963 445.658 153.855C444.67 152.747 443.289 152.193 441.516 152.193C440.357 152.193 439.343 152.449 438.474 152.961C437.621 153.455 436.965 154.171 436.505 155.108C436.045 156.029 435.806 157.137 435.789 158.432ZM487.04 181.239C482.847 181.239 479.234 180.438 476.2 178.836C473.182 177.216 470.856 174.898 469.219 171.881C467.6 168.847 466.79 165.216 466.79 160.989C466.79 156.932 467.609 153.387 469.245 150.353C470.881 147.318 473.191 144.958 476.174 143.27C479.157 141.583 482.677 140.739 486.734 140.739C489.7 140.739 492.384 141.199 494.788 142.12C497.191 143.04 499.245 144.378 500.95 146.134C502.654 147.872 503.967 149.986 504.887 152.475C505.807 154.963 506.268 157.767 506.268 160.887V164.159H471.188V156.387H493.279C493.262 155.262 492.972 154.273 492.41 153.421C491.864 152.551 491.123 151.878 490.185 151.401C489.265 150.907 488.217 150.659 487.04 150.659C485.898 150.659 484.85 150.907 483.896 151.401C482.941 151.878 482.174 152.543 481.594 153.395C481.032 154.247 480.734 155.245 480.7 156.387V164.773C480.7 166.034 480.964 167.159 481.492 168.148C482.021 169.137 482.779 169.912 483.768 170.475C484.756 171.037 485.95 171.318 487.347 171.318C488.319 171.318 489.205 171.182 490.006 170.909C490.825 170.637 491.523 170.245 492.103 169.733C492.682 169.205 493.109 168.574 493.381 167.841H506.268C505.825 170.568 504.776 172.938 503.123 174.949C501.469 176.943 499.279 178.495 496.552 179.603C493.842 180.693 490.671 181.239 487.04 181.239ZM519.633 195.25C518.014 195.25 516.472 195.122 515.006 194.867C513.54 194.628 512.253 194.296 511.145 193.87L514.213 183.847C515.372 184.256 516.429 184.52 517.383 184.639C518.355 184.759 519.182 184.691 519.864 184.435C520.562 184.179 521.065 183.693 521.372 182.978L521.679 182.262L507.872 141.25H522.599L528.94 168.455H529.349L535.793 141.25H550.622L536.304 183.796C535.588 185.961 534.548 187.904 533.185 189.625C531.838 191.364 530.065 192.736 527.866 193.742C525.668 194.747 522.923 195.25 519.633 195.25ZM572.361 181.239C568.1 181.239 564.452 180.395 561.418 178.708C558.384 177.003 556.057 174.634 554.438 171.6C552.819 168.549 552.009 165.012 552.009 160.989C552.009 156.966 552.819 153.438 554.438 150.404C556.057 147.353 558.384 144.983 561.418 143.296C564.452 141.591 568.1 140.739 572.361 140.739C576.214 140.739 579.546 141.438 582.359 142.836C585.188 144.216 587.378 146.176 588.93 148.716C590.481 151.239 591.265 154.205 591.282 157.614H578.191C578.003 155.551 577.407 153.983 576.401 152.909C575.413 151.818 574.134 151.273 572.566 151.273C571.339 151.273 570.265 151.631 569.344 152.347C568.424 153.046 567.708 154.111 567.197 155.543C566.685 156.958 566.43 158.739 566.43 160.887C566.43 163.034 566.685 164.824 567.197 166.256C567.708 167.671 568.424 168.736 569.344 169.452C570.265 170.151 571.339 170.5 572.566 170.5C573.606 170.5 574.526 170.262 575.327 169.784C576.128 169.29 576.776 168.574 577.271 167.637C577.782 166.682 578.089 165.523 578.191 164.159H591.282C591.231 167.62 590.438 170.637 588.904 173.211C587.37 175.767 585.197 177.745 582.384 179.142C579.589 180.54 576.248 181.239 572.361 181.239ZM616.026 181.239C611.764 181.239 608.116 180.395 605.082 178.708C602.048 177.003 599.722 174.634 598.102 171.6C596.483 168.549 595.673 165.012 595.673 160.989C595.673 156.966 596.483 153.438 598.102 150.404C599.722 147.353 602.048 144.983 605.082 143.296C608.116 141.591 611.764 140.739 616.026 140.739C620.287 140.739 623.935 141.591 626.969 143.296C630.003 144.983 632.329 147.353 633.949 150.404C635.568 153.438 636.378 156.966 636.378 160.989C636.378 165.012 635.568 168.549 633.949 171.6C632.329 174.634 630.003 177.003 626.969 178.708C623.935 180.395 620.287 181.239 616.026 181.239ZM616.128 170.807C617.321 170.807 618.352 170.407 619.222 169.605C620.091 168.804 620.764 167.662 621.241 166.179C621.719 164.696 621.957 162.932 621.957 160.887C621.957 158.824 621.719 157.06 621.241 155.594C620.764 154.111 620.091 152.969 619.222 152.168C618.352 151.367 617.321 150.966 616.128 150.966C614.866 150.966 613.784 151.367 612.881 152.168C611.977 152.969 611.287 154.111 610.81 155.594C610.332 157.06 610.094 158.824 610.094 160.887C610.094 162.932 610.332 164.696 610.81 166.179C611.287 167.662 611.977 168.804 612.881 169.605C613.784 170.407 614.866 170.807 616.128 170.807ZM642.105 180.523V141.25H655.503V148.716H655.912C656.73 146.262 658.128 144.318 660.105 142.887C662.082 141.455 664.435 140.739 667.162 140.739C669.923 140.739 672.301 141.472 674.295 142.938C676.29 144.387 677.491 146.313 677.901 148.716H678.31C678.974 146.313 680.389 144.387 682.554 142.938C684.719 141.472 687.258 140.739 690.173 140.739C693.94 140.739 696.991 141.949 699.327 144.37C701.679 146.79 702.855 150.012 702.855 154.034V180.523H688.741V157.614C688.741 155.892 688.307 154.546 687.437 153.574C686.568 152.586 685.401 152.091 683.935 152.091C682.486 152.091 681.335 152.586 680.483 153.574C679.648 154.546 679.23 155.892 679.23 157.614V180.523H665.73V157.614C665.73 155.892 665.295 154.546 664.426 153.574C663.557 152.586 662.389 152.091 660.923 152.091C659.952 152.091 659.116 152.313 658.418 152.756C657.719 153.199 657.173 153.838 656.781 154.674C656.406 155.492 656.219 156.472 656.219 157.614V180.523H642.105ZM709.611 180.523V128.159H723.725V148.103H723.93C724.441 146.773 725.191 145.554 726.18 144.446C727.168 143.321 728.396 142.426 729.861 141.762C731.327 141.08 733.032 140.739 734.975 140.739C737.566 140.739 740.029 141.429 742.364 142.81C744.717 144.191 746.626 146.364 748.092 149.33C749.575 152.296 750.316 156.148 750.316 160.887C750.316 165.421 749.609 169.179 748.194 172.162C746.796 175.145 744.921 177.37 742.569 178.836C740.234 180.301 737.668 181.034 734.873 181.034C733.032 181.034 731.387 180.736 729.938 180.139C728.506 179.526 727.279 178.699 726.256 177.659C725.251 176.603 724.475 175.409 723.93 174.08H723.623V180.523H709.611ZM723.418 160.887C723.418 162.796 723.665 164.449 724.16 165.847C724.671 167.228 725.387 168.301 726.307 169.068C727.245 169.818 728.361 170.193 729.657 170.193C730.952 170.193 732.052 169.827 732.955 169.094C733.876 168.344 734.575 167.279 735.052 165.898C735.546 164.5 735.793 162.83 735.793 160.887C735.793 158.943 735.546 157.282 735.052 155.901C734.575 154.503 733.876 153.438 732.955 152.705C732.052 151.955 730.952 151.58 729.657 151.58C728.361 151.58 727.245 151.955 726.307 152.705C725.387 153.438 724.671 154.503 724.16 155.901C723.665 157.282 723.418 158.943 723.418 160.887ZM781.995 154.341V164.978H757.45V154.341H781.995ZM790.394 195.25V141.25H804.405V148.103H804.712C805.224 146.773 805.974 145.554 806.962 144.446C807.951 143.321 809.178 142.426 810.644 141.762C812.11 141.08 813.815 140.739 815.758 140.739C818.349 140.739 820.812 141.429 823.147 142.81C825.499 144.191 827.408 146.364 828.874 149.33C830.357 152.296 831.099 156.148 831.099 160.887C831.099 165.421 830.391 169.179 828.977 172.162C827.579 175.145 825.704 177.37 823.352 178.836C821.016 180.301 818.451 181.034 815.655 181.034C813.815 181.034 812.17 180.736 810.721 180.139C809.289 179.526 808.062 178.699 807.039 177.659C806.033 176.603 805.258 175.409 804.712 174.08H804.508V195.25H790.394ZM804.201 160.887C804.201 162.796 804.448 164.449 804.942 165.847C805.454 167.228 806.17 168.301 807.09 169.068C808.028 169.818 809.144 170.193 810.44 170.193C811.735 170.193 812.834 169.827 813.738 169.094C814.658 168.344 815.357 167.279 815.834 165.898C816.329 164.5 816.576 162.83 816.576 160.887C816.576 158.943 816.329 157.282 815.834 155.901C815.357 154.503 814.658 153.438 813.738 152.705C812.834 151.955 811.735 151.58 810.44 151.58C809.144 151.58 808.028 151.955 807.09 152.705C806.17 153.438 805.454 154.503 804.942 155.901C804.448 157.282 804.201 158.943 804.201 160.887ZM837.011 180.523V141.25H850.716V148.716H851.125C851.841 145.955 852.974 143.935 854.526 142.657C856.094 141.378 857.926 140.739 860.023 140.739C860.636 140.739 861.241 140.79 861.838 140.892C862.452 140.978 863.04 141.105 863.602 141.276V153.318C862.903 153.08 862.043 152.901 861.02 152.782C859.997 152.662 859.119 152.603 858.386 152.603C857.006 152.603 855.761 152.918 854.653 153.549C853.562 154.162 852.702 155.032 852.071 156.157C851.44 157.264 851.125 158.568 851.125 160.068V180.523H837.011ZM884.901 181.239C880.639 181.239 876.991 180.395 873.957 178.708C870.923 177.003 868.597 174.634 866.977 171.6C865.358 168.549 864.548 165.012 864.548 160.989C864.548 156.966 865.358 153.438 866.977 150.404C868.597 147.353 870.923 144.983 873.957 143.296C876.991 141.591 880.639 140.739 884.901 140.739C889.162 140.739 892.81 141.591 895.844 143.296C898.878 144.983 901.204 147.353 902.824 150.404C904.443 153.438 905.253 156.966 905.253 160.989C905.253 165.012 904.443 168.549 902.824 171.6C901.204 174.634 898.878 177.003 895.844 178.708C892.81 180.395 889.162 181.239 884.901 181.239ZM885.003 170.807C886.196 170.807 887.227 170.407 888.097 169.605C888.966 168.804 889.639 167.662 890.116 166.179C890.594 164.696 890.832 162.932 890.832 160.887C890.832 158.824 890.594 157.06 890.116 155.594C889.639 154.111 888.966 152.969 888.097 152.168C887.227 151.367 886.196 150.966 885.003 150.966C883.741 150.966 882.659 151.367 881.756 152.168C880.852 152.969 880.162 154.111 879.685 155.594C879.207 157.06 878.969 158.824 878.969 160.887C878.969 162.932 879.207 164.696 879.685 166.179C880.162 167.662 880.852 168.804 881.756 169.605C882.659 170.407 883.741 170.807 885.003 170.807ZM921.815 141.25L927.542 153.421L933.576 141.25H947.587L937.053 160.887L948.099 180.523H934.19L927.542 168.046L921.099 180.523H906.985L918.133 160.887L907.701 141.25H921.815ZM961.196 195.25C959.577 195.25 958.034 195.122 956.568 194.867C955.102 194.628 953.815 194.296 952.707 193.87L955.776 183.847C956.935 184.256 957.991 184.52 958.946 184.639C959.918 184.759 960.744 184.691 961.426 184.435C962.125 184.179 962.628 183.693 962.935 182.978L963.241 182.262L949.435 141.25H964.162L970.503 168.455H970.912L977.355 141.25H992.185L977.866 183.796C977.151 185.961 976.111 187.904 974.747 189.625C973.401 191.364 971.628 192.736 969.429 193.742C967.23 194.747 964.486 195.25 961.196 195.25Z" fill="url(#paint6_radial_136_3)"/>
<path d="M248.753 224.344C248.674 223.599 248.339 223.02 247.748 222.605C247.162 222.19 246.401 221.983 245.464 221.983C244.804 221.983 244.239 222.082 243.768 222.281C243.296 222.48 242.935 222.75 242.685 223.091C242.435 223.432 242.307 223.821 242.302 224.259C242.302 224.622 242.384 224.937 242.549 225.205C242.719 225.472 242.949 225.699 243.239 225.886C243.529 226.068 243.85 226.222 244.202 226.347C244.554 226.472 244.91 226.577 245.268 226.662L246.904 227.071C247.563 227.224 248.197 227.432 248.804 227.693C249.418 227.955 249.966 228.284 250.449 228.682C250.938 229.08 251.324 229.56 251.608 230.122C251.893 230.685 252.035 231.344 252.035 232.099C252.035 233.122 251.773 234.023 251.251 234.801C250.728 235.574 249.972 236.179 248.983 236.616C248.001 237.048 246.81 237.264 245.412 237.264C244.054 237.264 242.876 237.054 241.876 236.634C240.881 236.213 240.103 235.599 239.54 234.793C238.983 233.986 238.682 233.003 238.637 231.844H241.748C241.793 232.452 241.981 232.957 242.31 233.361C242.64 233.764 243.069 234.065 243.597 234.264C244.131 234.463 244.728 234.562 245.387 234.562C246.074 234.562 246.677 234.46 247.194 234.256C247.716 234.045 248.126 233.756 248.421 233.386C248.716 233.011 248.867 232.574 248.873 232.074C248.867 231.619 248.733 231.244 248.472 230.949C248.211 230.648 247.844 230.398 247.373 230.199C246.907 229.994 246.361 229.812 245.736 229.653L243.751 229.142C242.313 228.773 241.177 228.213 240.341 227.463C239.512 226.707 239.097 225.705 239.097 224.455C239.097 223.426 239.376 222.526 239.932 221.753C240.495 220.98 241.259 220.381 242.225 219.955C243.191 219.523 244.285 219.307 245.506 219.307C246.745 219.307 247.83 219.523 248.762 219.955C249.699 220.381 250.435 220.974 250.969 221.736C251.503 222.491 251.779 223.361 251.796 224.344H248.753ZM257.802 229.33V237H254.717V219.545H257.734V226.134H257.888C258.194 225.395 258.669 224.812 259.311 224.386C259.959 223.955 260.782 223.739 261.782 223.739C262.692 223.739 263.484 223.929 264.16 224.31C264.836 224.69 265.359 225.247 265.728 225.98C266.103 226.713 266.291 227.608 266.291 228.665V237H263.206V229.142C263.206 228.261 262.978 227.577 262.524 227.088C262.075 226.594 261.444 226.347 260.632 226.347C260.086 226.347 259.598 226.466 259.166 226.705C258.74 226.937 258.405 227.276 258.16 227.719C257.922 228.162 257.802 228.699 257.802 229.33ZM269.436 237V223.909H272.521V237H269.436ZM270.987 222.051C270.498 222.051 270.078 221.889 269.726 221.565C269.373 221.236 269.197 220.841 269.197 220.381C269.197 219.915 269.373 219.52 269.726 219.196C270.078 218.866 270.498 218.702 270.987 218.702C271.481 218.702 271.902 218.866 272.248 219.196C272.601 219.52 272.777 219.915 272.777 220.381C272.777 220.841 272.601 221.236 272.248 221.565C271.902 221.889 271.481 222.051 270.987 222.051ZM275.694 241.909V223.909H278.728V226.074H278.907C279.066 225.756 279.29 225.418 279.58 225.06C279.87 224.696 280.262 224.386 280.756 224.131C281.251 223.869 281.881 223.739 282.648 223.739C283.66 223.739 284.572 223.997 285.384 224.514C286.202 225.026 286.85 225.784 287.327 226.79C287.81 227.79 288.052 229.017 288.052 230.472C288.052 231.909 287.816 233.131 287.344 234.136C286.873 235.142 286.231 235.909 285.418 236.438C284.606 236.966 283.685 237.23 282.657 237.23C281.907 237.23 281.285 237.105 280.79 236.855C280.296 236.605 279.898 236.304 279.597 235.952C279.302 235.594 279.072 235.256 278.907 234.938H278.779V241.909H275.694ZM278.719 230.455C278.719 231.301 278.839 232.043 279.077 232.679C279.322 233.315 279.671 233.812 280.126 234.17C280.586 234.523 281.143 234.699 281.796 234.699C282.478 234.699 283.049 234.517 283.509 234.153C283.969 233.784 284.316 233.281 284.549 232.645C284.787 232.003 284.907 231.273 284.907 230.455C284.907 229.642 284.79 228.92 284.557 228.29C284.324 227.659 283.978 227.165 283.518 226.807C283.057 226.449 282.483 226.27 281.796 226.27C281.137 226.27 280.577 226.443 280.117 226.79C279.657 227.136 279.307 227.622 279.069 228.247C278.836 228.872 278.719 229.608 278.719 230.455ZM299.732 219.545V237H296.647V219.545H299.732ZM308.615 237.256C307.336 237.256 306.228 236.974 305.291 236.412C304.353 235.849 303.626 235.062 303.109 234.051C302.598 233.04 302.342 231.858 302.342 230.506C302.342 229.153 302.598 227.969 303.109 226.952C303.626 225.935 304.353 225.145 305.291 224.582C306.228 224.02 307.336 223.739 308.615 223.739C309.893 223.739 311.001 224.02 311.939 224.582C312.876 225.145 313.601 225.935 314.112 226.952C314.629 227.969 314.888 229.153 314.888 230.506C314.888 231.858 314.629 233.04 314.112 234.051C313.601 235.062 312.876 235.849 311.939 236.412C311.001 236.974 309.893 237.256 308.615 237.256ZM308.632 234.784C309.325 234.784 309.905 234.594 310.371 234.213C310.836 233.827 311.183 233.31 311.41 232.662C311.643 232.014 311.76 231.293 311.76 230.497C311.76 229.696 311.643 228.972 311.41 228.324C311.183 227.67 310.836 227.151 310.371 226.764C309.905 226.378 309.325 226.185 308.632 226.185C307.922 226.185 307.331 226.378 306.859 226.764C306.393 227.151 306.044 227.67 305.811 228.324C305.584 228.972 305.47 229.696 305.47 230.497C305.47 231.293 305.584 232.014 305.811 232.662C306.044 233.31 306.393 233.827 306.859 234.213C307.331 234.594 307.922 234.784 308.632 234.784ZM323.199 242.182C322.091 242.182 321.14 242.031 320.344 241.73C319.549 241.435 318.91 241.037 318.427 240.537C317.944 240.037 317.608 239.483 317.421 238.875L320.199 238.202C320.324 238.457 320.506 238.71 320.745 238.96C320.983 239.216 321.304 239.426 321.708 239.591C322.117 239.761 322.631 239.847 323.251 239.847C324.126 239.847 324.85 239.634 325.424 239.207C325.998 238.787 326.285 238.094 326.285 237.128V234.648H326.131C325.972 234.966 325.739 235.293 325.432 235.628C325.131 235.963 324.731 236.244 324.231 236.472C323.736 236.699 323.114 236.812 322.364 236.812C321.358 236.812 320.447 236.577 319.628 236.105C318.816 235.628 318.168 234.918 317.685 233.974C317.208 233.026 316.969 231.838 316.969 230.412C316.969 228.974 317.208 227.761 317.685 226.773C318.168 225.778 318.819 225.026 319.637 224.514C320.455 223.997 321.367 223.739 322.373 223.739C323.14 223.739 323.77 223.869 324.265 224.131C324.765 224.386 325.162 224.696 325.458 225.06C325.753 225.418 325.978 225.756 326.131 226.074H326.302V223.909H329.344V237.213C329.344 238.332 329.077 239.259 328.543 239.991C328.009 240.724 327.279 241.273 326.353 241.636C325.427 242 324.376 242.182 323.199 242.182ZM323.225 234.392C323.878 234.392 324.435 234.233 324.895 233.915C325.356 233.597 325.705 233.139 325.944 232.543C326.182 231.946 326.302 231.23 326.302 230.395C326.302 229.571 326.182 228.849 325.944 228.23C325.711 227.611 325.364 227.131 324.904 226.79C324.449 226.443 323.89 226.27 323.225 226.27C322.537 226.27 321.964 226.449 321.503 226.807C321.043 227.165 320.697 227.656 320.464 228.281C320.231 228.901 320.114 229.605 320.114 230.395C320.114 231.196 320.231 231.898 320.464 232.5C320.702 233.097 321.052 233.562 321.512 233.898C321.978 234.227 322.549 234.392 323.225 234.392ZM342.853 227.369L340.04 227.676C339.961 227.392 339.822 227.125 339.623 226.875C339.429 226.625 339.168 226.423 338.839 226.27C338.509 226.116 338.106 226.04 337.628 226.04C336.986 226.04 336.447 226.179 336.009 226.457C335.577 226.736 335.364 227.097 335.37 227.54C335.364 227.92 335.503 228.23 335.787 228.469C336.077 228.707 336.554 228.903 337.219 229.057L339.452 229.534C340.691 229.801 341.611 230.224 342.214 230.804C342.822 231.384 343.128 232.142 343.134 233.08C343.128 233.903 342.887 234.631 342.41 235.261C341.938 235.886 341.282 236.375 340.441 236.727C339.6 237.08 338.634 237.256 337.543 237.256C335.941 237.256 334.651 236.92 333.674 236.25C332.697 235.574 332.114 234.634 331.927 233.429L334.935 233.139C335.072 233.73 335.361 234.176 335.804 234.477C336.248 234.778 336.824 234.929 337.535 234.929C338.268 234.929 338.856 234.778 339.299 234.477C339.748 234.176 339.972 233.804 339.972 233.361C339.972 232.986 339.827 232.676 339.537 232.432C339.253 232.187 338.81 232 338.208 231.869L335.975 231.401C334.719 231.139 333.79 230.699 333.188 230.08C332.586 229.455 332.287 228.665 332.293 227.71C332.287 226.903 332.506 226.205 332.949 225.614C333.398 225.017 334.02 224.557 334.816 224.233C335.617 223.903 336.54 223.739 337.586 223.739C339.12 223.739 340.327 224.065 341.208 224.719C342.094 225.372 342.643 226.256 342.853 227.369ZM358.168 223.909V226.295H350.643V223.909H358.168ZM352.501 220.773H355.586V233.062C355.586 233.477 355.648 233.795 355.773 234.017C355.904 234.233 356.074 234.381 356.285 234.46C356.495 234.54 356.728 234.58 356.983 234.58C357.177 234.58 357.353 234.565 357.512 234.537C357.677 234.509 357.802 234.483 357.887 234.46L358.407 236.872C358.242 236.929 358.006 236.991 357.699 237.06C357.398 237.128 357.029 237.168 356.591 237.179C355.819 237.202 355.123 237.085 354.503 236.83C353.884 236.568 353.393 236.165 353.029 235.619C352.671 235.074 352.495 234.392 352.501 233.574V220.773ZM366.318 237.256C365.04 237.256 363.932 236.974 362.994 236.412C362.057 235.849 361.329 235.062 360.812 234.051C360.301 233.04 360.045 231.858 360.045 230.506C360.045 229.153 360.301 227.969 360.812 226.952C361.329 225.935 362.057 225.145 362.994 224.582C363.932 224.02 365.04 223.739 366.318 223.739C367.596 223.739 368.704 224.02 369.642 224.582C370.579 225.145 371.304 225.935 371.815 226.952C372.332 227.969 372.591 229.153 372.591 230.506C372.591 231.858 372.332 233.04 371.815 234.051C371.304 235.062 370.579 235.849 369.642 236.412C368.704 236.974 367.596 237.256 366.318 237.256ZM366.335 234.784C367.028 234.784 367.608 234.594 368.074 234.213C368.54 233.827 368.886 233.31 369.113 232.662C369.346 232.014 369.463 231.293 369.463 230.497C369.463 229.696 369.346 228.972 369.113 228.324C368.886 227.67 368.54 227.151 368.074 226.764C367.608 226.378 367.028 226.185 366.335 226.185C365.625 226.185 365.034 226.378 364.562 226.764C364.096 227.151 363.747 227.67 363.514 228.324C363.287 228.972 363.173 229.696 363.173 230.497C363.173 231.293 363.287 232.014 363.514 232.662C363.747 233.31 364.096 233.827 364.562 234.213C365.034 234.594 365.625 234.784 366.335 234.784ZM383.54 237H380.165L386.31 219.545H390.214L396.367 237H392.992L388.33 223.125H388.194L383.54 237ZM383.651 230.156H392.856V232.696H383.651V230.156ZM401.052 223.909L403.694 228.741L406.379 223.909H409.643L405.697 230.455L409.711 237H406.464L403.694 232.287L400.95 237H397.677L401.666 230.455L397.78 223.909H401.052ZM412.03 237V223.909H415.115V237H412.03ZM413.581 222.051C413.092 222.051 412.672 221.889 412.319 221.565C411.967 221.236 411.791 220.841 411.791 220.381C411.791 219.915 411.967 219.52 412.319 219.196C412.672 218.866 413.092 218.702 413.581 218.702C414.075 218.702 414.496 218.866 414.842 219.196C415.194 219.52 415.371 219.915 415.371 220.381C415.371 220.841 415.194 221.236 414.842 221.565C414.496 221.889 414.075 222.051 413.581 222.051ZM423.998 237.256C422.719 237.256 421.611 236.974 420.674 236.412C419.736 235.849 419.009 235.062 418.492 234.051C417.981 233.04 417.725 231.858 417.725 230.506C417.725 229.153 417.981 227.969 418.492 226.952C419.009 225.935 419.736 225.145 420.674 224.582C421.611 224.02 422.719 223.739 423.998 223.739C425.276 223.739 426.384 224.02 427.322 224.582C428.259 225.145 428.983 225.935 429.495 226.952C430.012 227.969 430.27 229.153 430.27 230.506C430.27 231.858 430.012 233.04 429.495 234.051C428.983 235.062 428.259 235.849 427.322 236.412C426.384 236.974 425.276 237.256 423.998 237.256ZM424.015 234.784C424.708 234.784 425.287 234.594 425.753 234.213C426.219 233.827 426.566 233.31 426.793 232.662C427.026 232.014 427.143 231.293 427.143 230.497C427.143 229.696 427.026 228.972 426.793 228.324C426.566 227.67 426.219 227.151 425.753 226.764C425.287 226.378 424.708 226.185 424.015 226.185C423.304 226.185 422.714 226.378 422.242 226.764C421.776 227.151 421.427 227.67 421.194 228.324C420.966 228.972 420.853 229.696 420.853 230.497C420.853 231.293 420.966 232.014 421.194 232.662C421.427 233.31 421.776 233.827 422.242 234.213C422.714 234.594 423.304 234.784 424.015 234.784ZM432.889 237V223.909H435.838V226.134H435.991C436.264 225.384 436.716 224.798 437.346 224.378C437.977 223.952 438.73 223.739 439.605 223.739C440.491 223.739 441.238 223.955 441.846 224.386C442.46 224.812 442.892 225.395 443.142 226.134H443.278C443.568 225.406 444.057 224.827 444.744 224.395C445.437 223.957 446.258 223.739 447.207 223.739C448.412 223.739 449.395 224.119 450.156 224.881C450.917 225.642 451.298 226.753 451.298 228.213V237H448.204V228.69C448.204 227.878 447.988 227.284 447.557 226.909C447.125 226.528 446.596 226.338 445.971 226.338C445.227 226.338 444.645 226.571 444.224 227.037C443.809 227.497 443.602 228.097 443.602 228.835V237H440.576V228.562C440.576 227.886 440.372 227.347 439.963 226.943C439.559 226.54 439.031 226.338 438.378 226.338C437.934 226.338 437.531 226.452 437.167 226.679C436.804 226.901 436.514 227.216 436.298 227.625C436.082 228.028 435.974 228.5 435.974 229.04V237H432.889ZM464.148 237.264C463.319 237.264 462.572 237.116 461.907 236.821C461.248 236.52 460.725 236.077 460.339 235.491C459.958 234.906 459.768 234.185 459.768 233.327C459.768 232.588 459.904 231.977 460.177 231.494C460.449 231.011 460.822 230.625 461.293 230.335C461.765 230.045 462.296 229.827 462.887 229.679C463.483 229.526 464.1 229.415 464.736 229.347C465.503 229.267 466.126 229.196 466.603 229.134C467.08 229.065 467.427 228.963 467.643 228.827C467.864 228.685 467.975 228.466 467.975 228.17V228.119C467.975 227.477 467.785 226.98 467.404 226.628C467.023 226.276 466.475 226.099 465.759 226.099C465.003 226.099 464.404 226.264 463.961 226.594C463.523 226.923 463.228 227.312 463.074 227.761L460.194 227.352C460.421 226.557 460.796 225.892 461.319 225.358C461.841 224.818 462.481 224.415 463.236 224.148C463.992 223.875 464.827 223.739 465.742 223.739C466.373 223.739 467.001 223.812 467.626 223.96C468.251 224.108 468.822 224.352 469.339 224.693C469.856 225.028 470.27 225.486 470.583 226.065C470.901 226.645 471.06 227.369 471.06 228.239V237H468.094V235.202H467.992C467.804 235.565 467.54 235.906 467.199 236.224C466.864 236.537 466.441 236.79 465.929 236.983C465.424 237.17 464.83 237.264 464.148 237.264ZM464.949 234.997C465.569 234.997 466.106 234.875 466.56 234.631C467.015 234.381 467.364 234.051 467.608 233.642C467.858 233.233 467.983 232.787 467.983 232.304V230.761C467.887 230.841 467.722 230.915 467.489 230.983C467.262 231.051 467.006 231.111 466.722 231.162C466.438 231.213 466.157 231.259 465.878 231.298C465.6 231.338 465.358 231.372 465.154 231.401C464.694 231.463 464.282 231.565 463.918 231.707C463.554 231.849 463.268 232.048 463.057 232.304C462.847 232.554 462.742 232.878 462.742 233.276C462.742 233.844 462.949 234.273 463.364 234.562C463.779 234.852 464.307 234.997 464.949 234.997ZM477.248 229.33V237H474.162V223.909H477.111V226.134H477.265C477.566 225.401 478.046 224.818 478.705 224.386C479.37 223.955 480.191 223.739 481.168 223.739C482.072 223.739 482.858 223.932 483.529 224.318C484.205 224.705 484.728 225.264 485.097 225.997C485.472 226.73 485.657 227.619 485.651 228.665V237H482.566V229.142C482.566 228.267 482.339 227.582 481.884 227.088C481.435 226.594 480.813 226.347 480.018 226.347C479.478 226.347 478.998 226.466 478.577 226.705C478.162 226.937 477.836 227.276 477.597 227.719C477.364 228.162 477.248 228.699 477.248 229.33ZM493.645 237.23C492.617 237.23 491.697 236.966 490.884 236.438C490.072 235.909 489.429 235.142 488.958 234.136C488.486 233.131 488.251 231.909 488.251 230.472C488.251 229.017 488.489 227.79 488.966 226.79C489.449 225.784 490.1 225.026 490.918 224.514C491.736 223.997 492.648 223.739 493.654 223.739C494.421 223.739 495.052 223.869 495.546 224.131C496.04 224.386 496.432 224.696 496.722 225.06C497.012 225.418 497.236 225.756 497.395 226.074H497.523V219.545H500.617V237H497.583V234.938H497.395C497.236 235.256 497.006 235.594 496.705 235.952C496.404 236.304 496.006 236.605 495.512 236.855C495.018 237.105 494.395 237.23 493.645 237.23ZM494.506 234.699C495.16 234.699 495.716 234.523 496.177 234.17C496.637 233.812 496.986 233.315 497.225 232.679C497.464 232.043 497.583 231.301 497.583 230.455C497.583 229.608 497.464 228.872 497.225 228.247C496.992 227.622 496.645 227.136 496.185 226.79C495.731 226.443 495.171 226.27 494.506 226.27C493.819 226.27 493.245 226.449 492.785 226.807C492.324 227.165 491.978 227.659 491.745 228.29C491.512 228.92 491.395 229.642 491.395 230.455C491.395 231.273 491.512 232.003 491.745 232.645C491.983 233.281 492.333 233.784 492.793 234.153C493.259 234.517 493.83 234.699 494.506 234.699ZM509.994 237V219.545H513.156V226.935H521.244V219.545H524.415V237H521.244V229.585H513.156V237H509.994ZM533.427 237.256C532.149 237.256 531.041 236.974 530.103 236.412C529.166 235.849 528.439 235.062 527.922 234.051C527.41 233.04 527.155 231.858 527.155 230.506C527.155 229.153 527.41 227.969 527.922 226.952C528.439 225.935 529.166 225.145 530.103 224.582C531.041 224.02 532.149 223.739 533.427 223.739C534.706 223.739 535.814 224.02 536.751 224.582C537.689 225.145 538.413 225.935 538.925 226.952C539.442 227.969 539.7 229.153 539.7 230.506C539.7 231.858 539.442 233.04 538.925 234.051C538.413 235.062 537.689 235.849 536.751 236.412C535.814 236.974 534.706 237.256 533.427 237.256ZM533.444 234.784C534.138 234.784 534.717 234.594 535.183 234.213C535.649 233.827 535.996 233.31 536.223 232.662C536.456 232.014 536.572 231.293 536.572 230.497C536.572 229.696 536.456 228.972 536.223 228.324C535.996 227.67 535.649 227.151 535.183 226.764C534.717 226.378 534.138 226.185 533.444 226.185C532.734 226.185 532.143 226.378 531.672 226.764C531.206 227.151 530.856 227.67 530.623 228.324C530.396 228.972 530.282 229.696 530.282 230.497C530.282 231.293 530.396 232.014 530.623 232.662C530.856 233.31 531.206 233.827 531.672 234.213C532.143 234.594 532.734 234.784 533.444 234.784ZM545.404 229.33V237H542.319V223.909H545.268V226.134H545.421C545.722 225.401 546.202 224.818 546.861 224.386C547.526 223.955 548.347 223.739 549.324 223.739C550.228 223.739 551.015 223.932 551.685 224.318C552.361 224.705 552.884 225.264 553.253 225.997C553.628 226.73 553.813 227.619 553.807 228.665V237H550.722V229.142C550.722 228.267 550.495 227.582 550.04 227.088C549.591 226.594 548.969 226.347 548.174 226.347C547.634 226.347 547.154 226.466 546.733 226.705C546.319 226.937 545.992 227.276 545.753 227.719C545.52 228.162 545.404 228.699 545.404 229.33ZM562.739 237.256C561.427 237.256 560.293 236.983 559.339 236.438C558.39 235.886 557.66 235.108 557.148 234.102C556.637 233.091 556.381 231.901 556.381 230.531C556.381 229.185 556.637 228.003 557.148 226.986C557.665 225.963 558.387 225.168 559.313 224.599C560.239 224.026 561.327 223.739 562.577 223.739C563.384 223.739 564.145 223.869 564.861 224.131C565.583 224.386 566.219 224.784 566.77 225.324C567.327 225.864 567.765 226.551 568.083 227.386C568.401 228.216 568.56 229.205 568.56 230.352V231.298H557.83V229.219H565.603C565.597 228.628 565.469 228.102 565.219 227.642C564.969 227.176 564.62 226.81 564.171 226.543C563.728 226.276 563.211 226.142 562.62 226.142C561.989 226.142 561.435 226.295 560.958 226.602C560.481 226.903 560.108 227.301 559.841 227.795C559.58 228.284 559.447 228.821 559.441 229.406V231.222C559.441 231.983 559.58 232.636 559.858 233.182C560.137 233.722 560.526 234.136 561.026 234.426C561.526 234.71 562.111 234.852 562.782 234.852C563.231 234.852 563.637 234.79 564.001 234.665C564.364 234.534 564.679 234.344 564.947 234.094C565.214 233.844 565.415 233.534 565.552 233.165L568.432 233.489C568.251 234.25 567.904 234.915 567.393 235.483C566.887 236.045 566.239 236.483 565.449 236.795C564.66 237.102 563.756 237.256 562.739 237.256ZM572.713 241.909C572.292 241.909 571.903 241.875 571.545 241.807C571.193 241.744 570.912 241.67 570.701 241.585L571.417 239.182C571.866 239.313 572.267 239.375 572.619 239.369C572.971 239.364 573.281 239.253 573.548 239.037C573.821 238.827 574.051 238.474 574.238 237.98L574.503 237.273L569.755 223.909H573.028L576.045 233.795H576.182L579.207 223.909H582.488L577.247 238.585C577.003 239.278 576.679 239.872 576.275 240.366C575.872 240.866 575.378 241.247 574.792 241.509C574.213 241.776 573.52 241.909 572.713 241.909ZM589.888 237.256C588.581 237.256 587.459 236.969 586.522 236.395C585.59 235.821 584.871 235.028 584.366 234.017C583.866 233 583.616 231.83 583.616 230.506C583.616 229.176 583.871 228.003 584.383 226.986C584.894 225.963 585.616 225.168 586.547 224.599C587.485 224.026 588.593 223.739 589.871 223.739C590.934 223.739 591.874 223.935 592.692 224.327C593.516 224.713 594.172 225.261 594.661 225.972C595.15 226.676 595.428 227.5 595.496 228.443H592.547C592.428 227.812 592.144 227.287 591.695 226.866C591.252 226.44 590.658 226.227 589.914 226.227C589.283 226.227 588.729 226.398 588.252 226.739C587.775 227.074 587.402 227.557 587.135 228.188C586.874 228.818 586.743 229.574 586.743 230.455C586.743 231.347 586.874 232.114 587.135 232.756C587.397 233.392 587.763 233.884 588.235 234.23C588.712 234.571 589.272 234.741 589.914 234.741C590.368 234.741 590.775 234.656 591.133 234.486C591.496 234.31 591.8 234.057 592.045 233.727C592.289 233.398 592.456 232.997 592.547 232.526H595.496C595.422 233.452 595.15 234.273 594.678 234.989C594.206 235.699 593.564 236.256 592.752 236.659C591.939 237.057 590.985 237.256 589.888 237.256ZM603.74 237.256C602.461 237.256 601.353 236.974 600.416 236.412C599.478 235.849 598.751 235.062 598.234 234.051C597.723 233.04 597.467 231.858 597.467 230.506C597.467 229.153 597.723 227.969 598.234 226.952C598.751 225.935 599.478 225.145 600.416 224.582C601.353 224.02 602.461 223.739 603.74 223.739C605.018 223.739 606.126 224.02 607.064 224.582C608.001 225.145 608.726 225.935 609.237 226.952C609.754 227.969 610.013 229.153 610.013 230.506C610.013 231.858 609.754 233.04 609.237 234.051C608.726 235.062 608.001 235.849 607.064 236.412C606.126 236.974 605.018 237.256 603.74 237.256ZM603.757 234.784C604.45 234.784 605.03 234.594 605.496 234.213C605.961 233.827 606.308 233.31 606.535 232.662C606.768 232.014 606.885 231.293 606.885 230.497C606.885 229.696 606.768 228.972 606.535 228.324C606.308 227.67 605.961 227.151 605.496 226.764C605.03 226.378 604.45 226.185 603.757 226.185C603.047 226.185 602.456 226.378 601.984 226.764C601.518 227.151 601.169 227.67 600.936 228.324C600.709 228.972 600.595 229.696 600.595 230.497C600.595 231.293 600.709 232.014 600.936 232.662C601.169 233.31 601.518 233.827 601.984 234.213C602.456 234.594 603.047 234.784 603.757 234.784ZM612.631 237V223.909H615.58V226.134H615.733C616.006 225.384 616.458 224.798 617.089 224.378C617.719 223.952 618.472 223.739 619.347 223.739C620.233 223.739 620.981 223.955 621.589 224.386C622.202 224.812 622.634 225.395 622.884 226.134H623.02C623.31 225.406 623.799 224.827 624.486 224.395C625.179 223.957 626.001 223.739 626.949 223.739C628.154 223.739 629.137 224.119 629.898 224.881C630.66 225.642 631.04 226.753 631.04 228.213V237H627.947V228.69C627.947 227.878 627.731 227.284 627.299 226.909C626.867 226.528 626.339 226.338 625.714 226.338C624.969 226.338 624.387 226.571 623.966 227.037C623.552 227.497 623.344 228.097 623.344 228.835V237H620.319V228.562C620.319 227.886 620.114 227.347 619.705 226.943C619.302 226.54 618.773 226.338 618.12 226.338C617.677 226.338 617.273 226.452 616.91 226.679C616.546 226.901 616.256 227.216 616.04 227.625C615.824 228.028 615.716 228.5 615.716 229.04V237H612.631ZM634.307 237V219.545H637.392V226.074H637.52C637.679 225.756 637.903 225.418 638.193 225.06C638.483 224.696 638.875 224.386 639.369 224.131C639.863 223.869 640.494 223.739 641.261 223.739C642.273 223.739 643.184 223.997 643.997 224.514C644.815 225.026 645.463 225.784 645.94 226.79C646.423 227.79 646.665 229.017 646.665 230.472C646.665 231.909 646.429 233.131 645.957 234.136C645.486 235.142 644.844 235.909 644.031 236.438C643.219 236.966 642.298 237.23 641.27 237.23C640.52 237.23 639.898 237.105 639.403 236.855C638.909 236.605 638.511 236.304 638.21 235.952C637.915 235.594 637.684 235.256 637.52 234.938H637.341V237H634.307ZM637.332 230.455C637.332 231.301 637.451 232.043 637.69 232.679C637.934 233.315 638.284 233.812 638.738 234.17C639.199 234.523 639.755 234.699 640.409 234.699C641.091 234.699 641.662 234.517 642.122 234.153C642.582 233.784 642.929 233.281 643.162 232.645C643.4 232.003 643.52 231.273 643.52 230.455C643.52 229.642 643.403 228.92 643.17 228.29C642.937 227.659 642.591 227.165 642.13 226.807C641.67 226.449 641.096 226.27 640.409 226.27C639.75 226.27 639.19 226.443 638.73 226.79C638.27 227.136 637.92 227.622 637.682 228.247C637.449 228.872 637.332 229.608 637.332 230.455ZM665.587 227.369L662.775 227.676C662.695 227.392 662.556 227.125 662.357 226.875C662.164 226.625 661.902 226.423 661.573 226.27C661.243 226.116 660.84 226.04 660.363 226.04C659.721 226.04 659.181 226.179 658.743 226.457C658.312 226.736 658.099 227.097 658.104 227.54C658.099 227.92 658.238 228.23 658.522 228.469C658.812 228.707 659.289 228.903 659.954 229.057L662.187 229.534C663.425 229.801 664.346 230.224 664.948 230.804C665.556 231.384 665.863 232.142 665.868 233.08C665.863 233.903 665.621 234.631 665.144 235.261C664.672 235.886 664.016 236.375 663.175 236.727C662.334 237.08 661.368 237.256 660.277 237.256C658.675 237.256 657.385 236.92 656.408 236.25C655.431 235.574 654.849 234.634 654.661 233.429L657.67 233.139C657.806 233.73 658.096 234.176 658.539 234.477C658.982 234.778 659.559 234.929 660.269 234.929C661.002 234.929 661.59 234.778 662.033 234.477C662.482 234.176 662.706 233.804 662.706 233.361C662.706 232.986 662.562 232.676 662.272 232.432C661.988 232.187 661.545 232 660.942 231.869L658.709 231.401C657.454 231.139 656.525 230.699 655.922 230.08C655.32 229.455 655.022 228.665 655.027 227.71C655.022 226.903 655.241 226.205 655.684 225.614C656.133 225.017 656.755 224.557 657.55 224.233C658.351 223.903 659.275 223.739 660.32 223.739C661.854 223.739 663.062 224.065 663.942 224.719C664.829 225.372 665.377 226.256 665.587 227.369ZM668.412 237V223.909H671.498V237H668.412ZM669.964 222.051C669.475 222.051 669.054 221.889 668.702 221.565C668.35 221.236 668.174 220.841 668.174 220.381C668.174 219.915 668.35 219.52 668.702 219.196C669.054 218.866 669.475 218.702 669.964 218.702C670.458 218.702 670.878 218.866 671.225 219.196C671.577 219.52 671.753 219.915 671.753 220.381C671.753 220.841 671.577 221.236 671.225 221.565C670.878 221.889 670.458 222.051 669.964 222.051ZM674.67 237V223.909H677.619V226.134H677.773C678.045 225.384 678.497 224.798 679.128 224.378C679.758 223.952 680.511 223.739 681.386 223.739C682.273 223.739 683.02 223.955 683.628 224.386C684.241 224.812 684.673 225.395 684.923 226.134H685.059C685.349 225.406 685.838 224.827 686.525 224.395C687.219 223.957 688.04 223.739 688.988 223.739C690.193 223.739 691.176 224.119 691.937 224.881C692.699 225.642 693.079 226.753 693.079 228.213V237H689.986V228.69C689.986 227.878 689.77 227.284 689.338 226.909C688.906 226.528 688.378 226.338 687.753 226.338C687.008 226.338 686.426 226.571 686.005 227.037C685.591 227.497 685.383 228.097 685.383 228.835V237H682.358V228.562C682.358 227.886 682.153 227.347 681.744 226.943C681.341 226.54 680.812 226.338 680.159 226.338C679.716 226.338 679.312 226.452 678.949 226.679C678.585 226.901 678.295 227.216 678.079 227.625C677.863 228.028 677.755 228.5 677.755 229.04V237H674.67ZM704.553 231.494V223.909H707.638V237H704.647V234.673H704.51C704.215 235.406 703.729 236.006 703.053 236.472C702.383 236.937 701.556 237.17 700.573 237.17C699.715 237.17 698.956 236.98 698.297 236.599C697.644 236.213 697.133 235.653 696.763 234.92C696.394 234.182 696.209 233.29 696.209 232.244V223.909H699.295V231.767C699.295 232.597 699.522 233.256 699.976 233.744C700.431 234.233 701.027 234.477 701.766 234.477C702.221 234.477 702.661 234.366 703.087 234.145C703.513 233.923 703.863 233.594 704.135 233.156C704.414 232.713 704.553 232.159 704.553 231.494ZM713.896 219.545V237H710.811V219.545H713.896ZM723.606 223.909V226.295H716.08V223.909H723.606ZM717.938 220.773H721.023V233.062C721.023 233.477 721.086 233.795 721.211 234.017C721.341 234.233 721.512 234.381 721.722 234.46C721.932 234.54 722.165 234.58 722.421 234.58C722.614 234.58 722.79 234.565 722.949 234.537C723.114 234.509 723.239 234.483 723.324 234.46L723.844 236.872C723.679 236.929 723.444 236.991 723.137 237.06C722.836 237.128 722.466 237.168 722.029 237.179C721.256 237.202 720.56 237.085 719.941 236.83C719.322 236.568 718.83 236.165 718.466 235.619C718.108 235.074 717.932 234.392 717.938 233.574V220.773ZM729.953 237.264C729.123 237.264 728.376 237.116 727.711 236.821C727.052 236.52 726.53 236.077 726.143 235.491C725.763 234.906 725.572 234.185 725.572 233.327C725.572 232.588 725.709 231.977 725.981 231.494C726.254 231.011 726.626 230.625 727.098 230.335C727.569 230.045 728.101 229.827 728.692 229.679C729.288 229.526 729.905 229.415 730.541 229.347C731.308 229.267 731.93 229.196 732.407 229.134C732.885 229.065 733.231 228.963 733.447 228.827C733.669 228.685 733.78 228.466 733.78 228.17V228.119C733.78 227.477 733.589 226.98 733.209 226.628C732.828 226.276 732.28 226.099 731.564 226.099C730.808 226.099 730.209 226.264 729.765 226.594C729.328 226.923 729.032 227.312 728.879 227.761L725.998 227.352C726.226 226.557 726.601 225.892 727.123 225.358C727.646 224.818 728.285 224.415 729.041 224.148C729.797 223.875 730.632 223.739 731.547 223.739C732.177 223.739 732.805 223.812 733.43 223.96C734.055 224.108 734.626 224.352 735.143 224.693C735.66 225.028 736.075 225.486 736.388 226.065C736.706 226.645 736.865 227.369 736.865 228.239V237H733.899V235.202H733.797C733.609 235.565 733.345 235.906 733.004 236.224C732.669 236.537 732.246 236.79 731.734 236.983C731.228 237.17 730.635 237.264 729.953 237.264ZM730.754 234.997C731.373 234.997 731.91 234.875 732.365 234.631C732.819 234.381 733.169 234.051 733.413 233.642C733.663 233.233 733.788 232.787 733.788 232.304V230.761C733.692 230.841 733.527 230.915 733.294 230.983C733.067 231.051 732.811 231.111 732.527 231.162C732.243 231.213 731.961 231.259 731.683 231.298C731.405 231.338 731.163 231.372 730.959 231.401C730.498 231.463 730.086 231.565 729.723 231.707C729.359 231.849 729.072 232.048 728.862 232.304C728.652 232.554 728.547 232.878 728.547 233.276C728.547 233.844 728.754 234.273 729.169 234.562C729.584 234.852 730.112 234.997 730.754 234.997ZM743.052 229.33V237H739.967V223.909H742.916V226.134H743.069C743.371 225.401 743.851 224.818 744.51 224.386C745.175 223.955 745.996 223.739 746.973 223.739C747.876 223.739 748.663 223.932 749.334 224.318C750.01 224.705 750.532 225.264 750.902 225.997C751.277 226.73 751.461 227.619 751.456 228.665V237H748.371V229.142C748.371 228.267 748.143 227.582 747.689 227.088C747.24 226.594 746.618 226.347 745.822 226.347C745.282 226.347 744.802 226.466 744.382 226.705C743.967 226.937 743.64 227.276 743.402 227.719C743.169 228.162 743.052 228.699 743.052 229.33ZM760.388 237.256C759.075 237.256 757.942 236.983 756.987 236.438C756.038 235.886 755.308 235.108 754.797 234.102C754.285 233.091 754.03 231.901 754.03 230.531C754.03 229.185 754.285 228.003 754.797 226.986C755.314 225.963 756.035 225.168 756.961 224.599C757.888 224.026 758.976 223.739 760.226 223.739C761.032 223.739 761.794 223.869 762.51 224.131C763.231 224.386 763.868 224.784 764.419 225.324C764.976 225.864 765.413 226.551 765.731 227.386C766.05 228.216 766.209 229.205 766.209 230.352V231.298H755.478V229.219H763.251C763.246 228.628 763.118 228.102 762.868 227.642C762.618 227.176 762.268 226.81 761.819 226.543C761.376 226.276 760.859 226.142 760.268 226.142C759.638 226.142 759.084 226.295 758.606 226.602C758.129 226.903 757.757 227.301 757.49 227.795C757.228 228.284 757.095 228.821 757.089 229.406V231.222C757.089 231.983 757.228 232.636 757.507 233.182C757.785 233.722 758.175 234.136 758.675 234.426C759.175 234.71 759.76 234.852 760.43 234.852C760.879 234.852 761.285 234.79 761.649 234.665C762.013 234.534 762.328 234.344 762.595 234.094C762.862 233.844 763.064 233.534 763.2 233.165L766.081 233.489C765.899 234.25 765.552 234.915 765.041 235.483C764.535 236.045 763.888 236.483 763.098 236.795C762.308 237.102 761.405 237.256 760.388 237.256ZM774.529 237.256C773.251 237.256 772.143 236.974 771.205 236.412C770.268 235.849 769.54 235.062 769.023 234.051C768.512 233.04 768.256 231.858 768.256 230.506C768.256 229.153 768.512 227.969 769.023 226.952C769.54 225.935 770.268 225.145 771.205 224.582C772.143 224.02 773.251 223.739 774.529 223.739C775.807 223.739 776.915 224.02 777.853 224.582C778.79 225.145 779.515 225.935 780.026 226.952C780.543 227.969 780.802 229.153 780.802 230.506C780.802 231.858 780.543 233.04 780.026 234.051C779.515 235.062 778.79 235.849 777.853 236.412C776.915 236.974 775.807 237.256 774.529 237.256ZM774.546 234.784C775.239 234.784 775.819 234.594 776.285 234.213C776.751 233.827 777.097 233.31 777.324 232.662C777.557 232.014 777.674 231.293 777.674 230.497C777.674 229.696 777.557 228.972 777.324 228.324C777.097 227.67 776.751 227.151 776.285 226.764C775.819 226.378 775.239 226.185 774.546 226.185C773.836 226.185 773.245 226.378 772.773 226.764C772.307 227.151 771.958 227.67 771.725 228.324C771.498 228.972 771.384 229.696 771.384 230.497C771.384 231.293 771.498 232.014 771.725 232.662C771.958 233.31 772.307 233.827 772.773 234.213C773.245 234.594 773.836 234.784 774.546 234.784ZM791.764 231.494V223.909H794.849V237H791.858V234.673H791.721C791.426 235.406 790.94 236.006 790.264 236.472C789.594 236.937 788.767 237.17 787.784 237.17C786.926 237.17 786.167 236.98 785.508 236.599C784.855 236.213 784.344 235.653 783.974 234.92C783.605 234.182 783.42 233.29 783.42 232.244V223.909H786.505V231.767C786.505 232.597 786.733 233.256 787.187 233.744C787.642 234.233 788.238 234.477 788.977 234.477C789.432 234.477 789.872 234.366 790.298 234.145C790.724 233.923 791.074 233.594 791.346 233.156C791.625 232.713 791.764 232.159 791.764 231.494ZM808.368 227.369L805.556 227.676C805.476 227.392 805.337 227.125 805.138 226.875C804.945 226.625 804.684 226.423 804.354 226.27C804.025 226.116 803.621 226.04 803.144 226.04C802.502 226.04 801.962 226.179 801.525 226.457C801.093 226.736 800.88 227.097 800.885 227.54C800.88 227.92 801.019 228.23 801.303 228.469C801.593 228.707 802.07 228.903 802.735 229.057L804.968 229.534C806.206 229.801 807.127 230.224 807.729 230.804C808.337 231.384 808.644 232.142 808.65 233.08C808.644 233.903 808.402 234.631 807.925 235.261C807.454 235.886 806.797 236.375 805.956 236.727C805.116 237.08 804.15 237.256 803.059 237.256C801.456 237.256 800.167 236.92 799.189 236.25C798.212 235.574 797.63 234.634 797.442 233.429L800.451 233.139C800.587 233.73 800.877 234.176 801.32 234.477C801.763 234.778 802.34 234.929 803.05 234.929C803.783 234.929 804.371 234.778 804.814 234.477C805.263 234.176 805.488 233.804 805.488 233.361C805.488 232.986 805.343 232.676 805.053 232.432C804.769 232.187 804.326 232 803.724 231.869L801.491 231.401C800.235 231.139 799.306 230.699 798.704 230.08C798.101 229.455 797.803 228.665 797.809 227.71C797.803 226.903 798.022 226.205 798.465 225.614C798.914 225.017 799.536 224.557 800.331 224.233C801.133 223.903 802.056 223.739 803.101 223.739C804.635 223.739 805.843 224.065 806.724 224.719C807.61 225.372 808.158 226.256 808.368 227.369ZM814.279 219.545V237H811.194V219.545H814.279ZM819.369 241.909C818.949 241.909 818.559 241.875 818.201 241.807C817.849 241.744 817.568 241.67 817.358 241.585L818.074 239.182C818.523 239.313 818.923 239.375 819.275 239.369C819.628 239.364 819.937 239.253 820.204 239.037C820.477 238.827 820.707 238.474 820.895 237.98L821.159 237.273L816.412 223.909H819.684L822.701 233.795H822.838L825.863 223.909H829.145L823.903 238.585C823.659 239.278 823.335 239.872 822.932 240.366C822.528 240.866 822.034 241.247 821.449 241.509C820.869 241.776 820.176 241.909 819.369 241.909Z" fill="#09101F"/>
<path d="M124.093 346.832L114.292 337.04L115.903 335.42L125.704 345.222L124.093 346.832ZM115.903 346.832L114.292 345.222L124.093 335.42L125.704 337.04L115.903 346.832Z" fill="#20294F"/>
<mask id="mask0_136_3" style="mask-type:luminance" maskUnits="userSpaceOnUse" x="143" y="315" width="58" height="47">
<path d="M200.354 315H143V362H200.354V315Z" fill="white"/>
</mask>
<g mask="url(#mask0_136_3)">
<path d="M168.748 347.02L173.068 354.508L168.748 362H160.159L155.843 354.508L160.159 347.02H168.748Z" fill="#20294F"/>
<path d="M168.748 328.943L173.068 336.431L168.748 343.923H160.159L155.843 336.431L160.159 328.943H168.748Z" fill="#20294F"/>
<path d="M153.544 339.274L157.063 345.467L153.544 351.669H146.519L143 345.467L146.519 339.274H153.544Z" fill="#20294F"/>
<path d="M187.443 315L193.029 324.805L187.443 334.625H176.215L170.629 324.805L176.215 315H187.443Z" fill="#20294F"/>
</g>
</g>
<rect x="0.786865" y="0.5" width="1065.67" height="399" stroke="#E0E0E0"/>
<defs>
<filter id="filter0_d_136_3" x="130.166" y="29.6461" width="835.175" height="207.104" filterUnits="userSpaceOnUse" color-interpolation-filters="sRGB">
<feFlood flood-opacity="0" result="BackgroundImageFix"/>
<feColorMatrix in="SourceAlpha" type="matrix" values="0 0 0 0 0 0 0 0 0 0 0 0 0 0 0 0 0 0 127 0" result="hardAlpha"/>
<feOffset dy="4"/>
<feGaussianBlur stdDeviation="16"/>
<feComposite in2="hardAlpha" operator="out"/>
<feColorMatrix type="matrix" values="0 0 0 0 0.1375 0 0 0 0 0.328673 0 0 0 0 1 0 0 0 1 0"/>
<feBlend mode="normal" in2="BackgroundImageFix" result="effect1_dropShadow_136_3"/>
<feBlend mode="normal" in="SourceGraphic" in2="effect1_dropShadow_136_3" result="shape"/>
</filter>
<linearGradient id="paint0_linear_136_3" x1="19.7213" y1="116.647" x2="-2.87256" y2="156.473" gradientUnits="userSpaceOnUse">
<stop stop-color="#6A68FF"/>
<stop offset="1" stop-color="#6C7EFF" stop-opacity="0"/>
</linearGradient>
<linearGradient id="paint1_linear_136_3" x1="-3.64529e+13" y1="177.186" x2="-3.64529e+13" y2="124.542" gradientUnits="userSpaceOnUse">
<stop stop-color="#6A68FF"/>
<stop offset="1" stop-color="#6C7EFF" stop-opacity="0"/>
</linearGradient>
<linearGradient id="paint2_linear_136_3" x1="-3.64529e+13" y1="199.779" x2="-3.64529e+13" y2="147.135" gradientUnits="userSpaceOnUse">
<stop stop-color="#6A68FF"/>
<stop offset="1" stop-color="#6C7EFF" stop-opacity="0"/>
</linearGradient>
<linearGradient id="paint3_linear_136_3" x1="3.64529e+13" y1="-225668" x2="3.64529e+13" y2="-225616" gradientUnits="userSpaceOnUse">
<stop stop-color="#6A68FF"/>
<stop offset="1" stop-color="#6C7EFF" stop-opacity="0"/>
</linearGradient>
<linearGradient id="paint4_linear_136_3" x1="3.64529e+13" y1="-225668" x2="3.64529e+13" y2="-225616" gradientUnits="userSpaceOnUse">
<stop stop-color="#6A68FF"/>
<stop offset="1" stop-color="#6C7EFF" stop-opacity="0"/>
</linearGradient>
<radialGradient id="paint5_radial_136_3" cx="0" cy="0" r="1" gradientUnits="userSpaceOnUse" gradientTransform="translate(533.5 199.694) rotate(90) scale(199.694 269.511)">
<stop stop-color="white"/>
<stop offset="1" stop-color="#D9D9D9" stop-opacity="0"/>
</radialGradient>
<radialGradient id="paint6_radial_136_3" cx="0" cy="0" r="1" gradientUnits="userSpaceOnUse" gradientTransform="translate(1016.08 175.773) rotate(175.796) scale(904.908 9280.82)">
<stop stop-color="#0D0F26"/>
<stop offset="0.622778" stop-color="#384382"/>
<stop offset="0.773151" stop-color="#504F79"/>
<stop offset="1" stop-color="#0D0F26"/>
</radialGradient>
<clipPath id="clip0_136_3">
<rect x="0.286865" width="1066.67" height="400" fill="white"/>
</clipPath>
<clipPath id="clip1_136_3">
<rect width="1085" height="458" fill="white" transform="translate(-9 -29)"/>
</clipPath>
</defs>
</svg>
